<svg width="20" height="20" viewBox="0 0 20 20" fill="none" xmlns="http://www.w3.org/2000/svg">
<path d="M7.05049 2.30216C7.68621 2.30216 8.20157 1.7868 8.20157 1.15108C8.20157 0.515356 7.68621 0 7.05049 0C6.41477 0 5.89941 0.515356 5.89941 1.15108C5.89941 1.7868 6.41477 2.30216 7.05049 2.30216Z" fill="black"/>
<path d="M9.9919 2.30216C10.6276 2.30216 11.143 1.7868 11.143 1.15108C11.143 0.515356 10.6276 0 9.9919 0C9.35618 0 8.84082 0.515356 8.84082 1.15108C8.84082 1.7868 9.35618 2.30216 9.9919 2.30216Z" fill="black"/>
<path d="M12.9504 2.30216C13.5861 2.30216 14.1015 1.7868 14.1015 1.15108C14.1015 0.515356 13.5861 0 12.9504 0C12.3147 0 11.7993 0.515356 11.7993 1.15108C11.7993 1.7868 12.3147 2.30216 12.9504 2.30216Z" fill="black"/>
<path d="M7.05049 5.2598C7.68621 5.2598 8.20157 4.74444 8.20157 4.10872C8.20157 3.473 7.68621 2.95764 7.05049 2.95764C6.41477 2.95764 5.89941 3.473 5.89941 4.10872C5.89941 4.74444 6.41477 5.2598 7.05049 5.2598Z" fill="black"/>
<path d="M4.10908 5.2598C4.74481 5.2598 5.26017 4.74444 5.26017 4.10872C5.26017 3.473 4.74481 2.95764 4.10908 2.95764C3.47336 2.95764 2.95801 3.473 2.95801 4.10872C2.95801 4.74444 3.47336 5.2598 4.10908 5.2598Z" fill="black"/>
<path d="M9.9919 5.2598C10.6276 5.2598 11.143 4.74444 11.143 4.10872C11.143 3.473 10.6276 2.95764 9.9919 2.95764C9.35618 2.95764 8.84082 3.473 8.84082 4.10872C8.84082 4.74444 9.35618 5.2598 9.9919 5.2598Z" fill="black"/>
<path d="M12.9504 5.2598C13.5861 5.2598 14.1015 4.74444 14.1015 4.10872C14.1015 3.473 13.5861 2.95764 12.9504 2.95764C12.3147 2.95764 11.7993 3.473 11.7993 4.10872C11.7993 4.74444 12.3147 5.2598 12.9504 5.2598Z" fill="black"/>
<path d="M15.8913 5.2598C16.527 5.2598 17.0424 4.74444 17.0424 4.10872C17.0424 3.473 16.527 2.95764 15.8913 2.95764C15.2556 2.95764 14.7402 3.473 14.7402 4.10872C14.7402 4.74444 15.2556 5.2598 15.8913 5.2598Z" fill="black"/>
<path d="M12.9504 19.9999C13.5861 19.9999 14.1015 19.4846 14.1015 18.8488C14.1015 18.2131 13.5861 17.6978 12.9504 17.6978C12.3147 17.6978 11.7993 18.2131 11.7993 18.8488C11.7993 19.4846 12.3147 19.9999 12.9504 19.9999Z" fill="black"/>
<path d="M9.9919 19.9999C10.6276 19.9999 11.143 19.4846 11.143 18.8488C11.143 18.2131 10.6276 17.6978 9.9919 17.6978C9.35618 17.6978 8.84082 18.2131 8.84082 18.8488C8.84082 19.4846 9.35618 19.9999 9.9919 19.9999Z" fill="black"/>
<path d="M7.05049 19.9999C7.68621 19.9999 8.20157 19.4846 8.20157 18.8488C8.20157 18.2131 7.68621 17.6978 7.05049 17.6978C6.41477 17.6978 5.89941 18.2131 5.89941 18.8488C5.89941 19.4846 6.41477 19.9999 7.05049 19.9999Z" fill="black"/>
<path d="M12.9504 17.0424C13.5861 17.0424 14.1015 16.527 14.1015 15.8913C14.1015 15.2556 13.5861 14.7402 12.9504 14.7402C12.3147 14.7402 11.7993 15.2556 11.7993 15.8913C11.7993 16.527 12.3147 17.0424 12.9504 17.0424Z" fill="black"/>
<path d="M15.8913 17.0424C16.527 17.0424 17.0424 16.527 17.0424 15.8913C17.0424 15.2556 16.527 14.7402 15.8913 14.7402C15.2556 14.7402 14.7402 15.2556 14.7402 15.8913C14.7402 16.527 15.2556 17.0424 15.8913 17.0424Z" fill="black"/>
<path d="M9.9919 17.0424C10.6276 17.0424 11.143 16.527 11.143 15.8913C11.143 15.2556 10.6276 14.7402 9.9919 14.7402C9.35618 14.7402 8.84082 15.2556 8.84082 15.8913C8.84082 16.527 9.35618 17.0424 9.9919 17.0424Z" fill="black"/>
<path d="M7.05049 17.0424C7.68621 17.0424 8.20157 16.527 8.20157 15.8913C8.20157 15.2556 7.68621 14.7402 7.05049 14.7402C6.41477 14.7402 5.89941 15.2556 5.89941 15.8913C5.89941 16.527 6.41477 17.0424 7.05049 17.0424Z" fill="black"/>
<path d="M4.10908 17.0424C4.74481 17.0424 5.26017 16.527 5.26017 15.8913C5.26017 15.2556 4.74481 14.7402 4.10908 14.7402C3.47336 14.7402 2.95801 15.2556 2.95801 15.8913C2.95801 16.527 3.47336 17.0424 4.10908 17.0424Z" fill="black"/>
<path d="M7.05049 8.20145C7.68621 8.20145 8.20157 7.6861 8.20157 7.05037C8.20157 6.41465 7.68621 5.89929 7.05049 5.89929C6.41477 5.89929 5.89941 6.41465 5.89941 7.05037C5.89941 7.6861 6.41477 8.20145 7.05049 8.20145Z" fill="black"/>
<path d="M4.10908 8.20145C4.74481 8.20145 5.26017 7.6861 5.26017 7.05037C5.26017 6.41465 4.74481 5.89929 4.10908 5.89929C3.47336 5.89929 2.95801 6.41465 2.95801 7.05037C2.95801 7.6861 3.47336 8.20145 4.10908 8.20145Z" fill="black"/>
<path d="M1.15156 8.20145C1.78729 8.20145 2.30265 7.6861 2.30265 7.05037C2.30265 6.41465 1.78729 5.89929 1.15156 5.89929C0.515841 5.89929 0.000488281 6.41465 0.000488281 7.05037C0.000488281 7.6861 0.515841 8.20145 1.15156 8.20145Z" fill="black"/>
<path d="M9.9919 8.20145C10.6276 8.20145 11.143 7.6861 11.143 7.05037C11.143 6.41465 10.6276 5.89929 9.9919 5.89929C9.35618 5.89929 8.84082 6.41465 8.84082 7.05037C8.84082 7.6861 9.35618 8.20145 9.9919 8.20145Z" fill="black"/>
<path d="M12.9504 8.20145C13.5861 8.20145 14.1015 7.6861 14.1015 7.05037C14.1015 6.41465 13.5861 5.89929 12.9504 5.89929C12.3147 5.89929 11.7993 6.41465 11.7993 7.05037C11.7993 7.6861 12.3147 8.20145 12.9504 8.20145Z" fill="black"/>
<path d="M15.8913 8.20145C16.527 8.20145 17.0424 7.6861 17.0424 7.05037C17.0424 6.41465 16.527 5.89929 15.8913 5.89929C15.2556 5.89929 14.7402 6.41465 14.7402 7.05037C14.7402 7.6861 15.2556 8.20145 15.8913 8.20145Z" fill="black"/>
<path d="M18.8493 8.20145C19.485 8.20145 20.0004 7.6861 20.0004 7.05037C20.0004 6.41465 19.485 5.89929 18.8493 5.89929C18.2136 5.89929 17.6982 6.41465 17.6982 7.05037C17.6982 7.6861 18.2136 8.20145 18.8493 8.20145Z" fill="black"/>
<path d="M7.05049 11.1431C7.68621 11.1431 8.20157 10.6277 8.20157 9.99202C8.20157 9.3563 7.68621 8.84094 7.05049 8.84094C6.41477 8.84094 5.89941 9.3563 5.89941 9.99202C5.89941 10.6277 6.41477 11.1431 7.05049 11.1431Z" fill="black"/>
<path d="M4.10908 11.1431C4.74481 11.1431 5.26017 10.6277 5.26017 9.99202C5.26017 9.3563 4.74481 8.84094 4.10908 8.84094C3.47336 8.84094 2.95801 9.3563 2.95801 9.99202C2.95801 10.6277 3.47336 11.1431 4.10908 11.1431Z" fill="black"/>
<path d="M1.15156 11.1431C1.78729 11.1431 2.30265 10.6277 2.30265 9.99202C2.30265 9.3563 1.78729 8.84094 1.15156 8.84094C0.515841 8.84094 0.000488281 9.3563 0.000488281 9.99202C0.000488281 10.6277 0.515841 11.1431 1.15156 11.1431Z" fill="black"/>
<path d="M9.9919 11.1431C10.6276 11.1431 11.143 10.6277 11.143 9.99202C11.143 9.3563 10.6276 8.84094 9.9919 8.84094C9.35618 8.84094 8.84082 9.3563 8.84082 9.99202C8.84082 10.6277 9.35618 11.1431 9.9919 11.1431Z" fill="black"/>
<path d="M12.9504 11.1431C13.5861 11.1431 14.1015 10.6277 14.1015 9.99202C14.1015 9.3563 13.5861 8.84094 12.9504 8.84094C12.3147 8.84094 11.7993 9.3563 11.7993 9.99202C11.7993 10.6277 12.3147 11.1431 12.9504 11.1431Z" fill="black"/>
<path d="M15.8913 11.1431C16.527 11.1431 17.0424 10.6277 17.0424 9.99202C17.0424 9.3563 16.527 8.84094 15.8913 8.84094C15.2556 8.84094 14.7402 9.3563 14.7402 9.99202C14.7402 10.6277 15.2556 11.1431 15.8913 11.1431Z" fill="black"/>
<path d="M18.8493 11.1431C19.485 11.1431 20.0004 10.6277 20.0004 9.99202C20.0004 9.3563 19.485 8.84094 18.8493 8.84094C18.2136 8.84094 17.6982 9.3563 17.6982 9.99202C17.6982 10.6277 18.2136 11.1431 18.8493 11.1431Z" fill="black"/>
<path d="M7.05049 14.1006C7.68621 14.1006 8.20157 13.5853 8.20157 12.9495C8.20157 12.3138 7.68621 11.7985 7.05049 11.7985C6.41477 11.7985 5.89941 12.3138 5.89941 12.9495C5.89941 13.5853 6.41477 14.1006 7.05049 14.1006Z" fill="black"/>
<path d="M4.10908 14.1006C4.74481 14.1006 5.26017 13.5853 5.26017 12.9495C5.26017 12.3138 4.74481 11.7985 4.10908 11.7985C3.47336 11.7985 2.95801 12.3138 2.95801 12.9495C2.95801 13.5853 3.47336 14.1006 4.10908 14.1006Z" fill="black"/>
<path d="M1.15156 14.1006C1.78729 14.1006 2.30265 13.5853 2.30265 12.9495C2.30265 12.3138 1.78729 11.7985 1.15156 11.7985C0.515841 11.7985 0.000488281 12.3138 0.000488281 12.9495C0.000488281 13.5853 0.515841 14.1006 1.15156 14.1006Z" fill="black"/>
<path d="M9.9919 14.1006C10.6276 14.1006 11.143 13.5853 11.143 12.9495C11.143 12.3138 10.6276 11.7985 9.9919 11.7985C9.35618 11.7985 8.84082 12.3138 8.84082 12.9495C8.84082 13.5853 9.35618 14.1006 9.9919 14.1006Z" fill="black"/>
<path d="M12.9504 14.1007C13.5861 14.1007 14.1015 13.5854 14.1015 12.9497C14.1015 12.3139 13.5861 11.7986 12.9504 11.7986C12.3147 11.7986 11.7993 12.3139 11.7993 12.9497C11.7993 13.5854 12.3147 14.1007 12.9504 14.1007Z" fill="black"/>
<path d="M15.8913 14.1006C16.527 14.1006 17.0424 13.5853 17.0424 12.9495C17.0424 12.3138 16.527 11.7985 15.8913 11.7985C15.2556 11.7985 14.7402 12.3138 14.7402 12.9495C14.7402 13.5853 15.2556 14.1006 15.8913 14.1006Z" fill="black"/>
<path d="M18.8493 14.1007C19.485 14.1007 20.0004 13.5854 20.0004 12.9497C20.0004 12.3139 19.485 11.7986 18.8493 11.7986C18.2136 11.7986 17.6982 12.3139 17.6982 12.9497C17.6982 13.5854 18.2136 14.1007 18.8493 14.1007Z" fill="black"/>
</svg>
