<svg width="20" height="20" viewBox="0 0 20 20" fill="none" xmlns="http://www.w3.org/2000/svg">
<path d="M20 6.672C20 2.992 17.008 0 13.328 0C12.112 0 10.976 0.319996 10 0.895996C9.024 0.335996 7.888 0 6.672 0C2.992 0 0 2.992 0 6.672C0 7.888 0.320001 9.024 0.896001 10C0.336001 10.976 0 12.112 0 13.328C0 17.008 2.992 20 6.672 20C7.888 20 9.024 19.68 10 19.104C10.976 19.664 12.112 20 13.328 20C17.008 20 20 17.008 20 13.328C20 12.112 19.68 10.976 19.104 10C19.664 9.024 20 7.888 20 6.672ZM9.984 13.344C8.144 13.344 6.656 11.856 6.656 10.016C6.656 8.176 8.144 6.688 9.984 6.688C11.824 6.688 13.312 8.176 13.312 10.016C13.312 11.856 11.84 13.344 9.984 13.344Z" fill="black"/>
</svg>
