<svg width="22" height="22" viewBox="0 0 22 22" fill="none" xmlns="http://www.w3.org/2000/svg">
<path d="M11 20.9999C16.5228 20.9999 21 16.5227 21 10.9999C21 5.47703 16.5228 0.999878 11 0.999878C5.47715 0.999878 1 5.47703 1 10.9999C1 16.5227 5.47715 20.9999 11 20.9999Z" stroke="black" stroke-width="1.22476" stroke-miterlimit="10"/>
<path d="M11 1.01685V20.9999" stroke="black" stroke-width="1.22476" stroke-miterlimit="10"/>
<path d="M11 21C13.7614 21 16 16.5228 16 11C16 5.47715 13.7614 1 11 1C8.23858 1 6 5.47715 6 11C6 16.5228 8.23858 21 11 21Z" stroke="black" stroke-width="1.22476" stroke-miterlimit="10"/>
<path d="M1.0166 11H20.9997" stroke="black" stroke-width="1.22476" stroke-miterlimit="10"/>
</svg>
