<svg width="20" height="20" viewBox="0 0 20 20" fill="none" xmlns="http://www.w3.org/2000/svg">
<path d="M10.0005 0C4.48048 0 0.000488281 4.47999 0.000488281 9.99998C0.000488281 15.52 4.48048 20 10.0005 20C15.5205 20 20.0004 15.52 20.0004 9.99998C20.0164 4.49599 15.5205 0 10.0005 0ZM14.6085 14.608C12.0645 14.608 10.0165 12.544 10.0165 10.016C10.0165 7.48798 7.95247 5.42399 5.42447 5.42399C2.89648 5.42399 0.832488 7.48798 0.832488 10.016C0.832488 10.32 0.848486 10.624 0.880486 10.912C0.864486 10.768 0.848485 10.624 0.848485 10.48C0.848485 10.32 0.832488 10.16 0.832488 9.99998C0.832488 5.08799 4.68848 1.07199 9.55247 0.815994C9.71247 0.799994 9.87247 0.799998 10.0325 0.799998C10.1925 0.799998 10.3525 0.799994 10.5125 0.815994C10.6885 0.831994 10.8645 0.847997 11.0405 0.863997C11.2965 0.895997 11.5525 0.927994 11.8085 0.975994C11.8725 0.991994 11.9525 1.008 12.0165 1.024C16.1285 1.93599 19.2164 5.59999 19.2164 9.99998C19.2164 10.08 19.2164 10.16 19.2164 10.24C19.0724 12.672 17.0564 14.608 14.6085 14.608Z" fill="black"/>
</svg>
