<svg width="20" height="20" viewBox="0 0 20 20" fill="none" xmlns="http://www.w3.org/2000/svg">
<path d="M8.20193 20H4.7487C2.1268 20 0.000488281 17.8737 0.000488281 15.2518V11.7986H1.7431V15.2518C1.7431 16.8985 3.08603 18.2414 4.73271 18.2414H8.18594V20H8.20193Z" fill="black"/>
<path d="M15.2516 20H11.7983V18.2574H15.2516C16.8983 18.2574 18.2412 16.9145 18.2412 15.2678V11.7986H19.9838V15.2518C19.9998 17.8577 17.8575 20 15.2516 20Z" fill="black"/>
<path d="M19.9998 8.20144H18.2572V4.74821C18.2572 3.10153 16.9142 1.7586 15.2676 1.7586H11.7983V0.0159912H15.2516C17.8735 0.0159912 19.9998 2.14229 19.9998 4.76419V8.20144Z" fill="black"/>
<path d="M1.75968 8.20143H0.0170898V4.7482C0.0170898 2.1263 2.14338 0 4.76528 0H8.21851V1.7426H4.76528C3.1186 1.7426 1.77568 3.08553 1.77568 4.73221V8.20143H1.75968Z" fill="black"/>
</svg>
