<svg width="20" height="20" viewBox="0 0 20 20" fill="none" xmlns="http://www.w3.org/2000/svg">
<path d="M5.08789 1.28V4.912H9.93589V0C8.17589 0 6.51189 0.48 5.08789 1.28Z" fill="black"/>
<path d="M0.0146484 9.92002H4.92665V5.07202H1.29465C0.494648 6.49602 0.0146484 8.16002 0.0146484 9.92002Z" fill="black"/>
<path d="M9.93589 5.07202H5.08789V9.92002H9.93589V5.07202Z" fill="black"/>
<path d="M9.93589 10.0801H5.08789V14.9281H9.93589V10.0801Z" fill="black"/>
<path d="M15.0894 4.9121H18.6254C17.7614 3.4561 16.5454 2.2401 15.0894 1.3761V4.9121Z" fill="black"/>
<path d="M10.0957 0V4.912H14.9437V1.28C13.5037 0.48 11.8557 0 10.0957 0Z" fill="black"/>
<path d="M4.92665 10.0801H0.0146484C0.0306484 11.8401 0.494647 13.4881 1.31065 14.9281H4.92665V10.0801Z" fill="black"/>
<path d="M14.9437 5.0719H10.0957V9.9199H14.9437V5.0719Z" fill="black"/>
<path d="M9.93589 20.0001V15.0721H5.08789V18.7041C6.51189 19.5041 8.17589 19.9841 9.93589 20.0001Z" fill="black"/>
<path d="M14.9291 15.072H10.0811V19.984C11.8411 19.968 13.4891 19.504 14.9291 18.688V15.072Z" fill="black"/>
<path d="M4.9276 4.91198V1.37598C3.4716 2.23998 2.2556 3.45598 1.3916 4.91198H4.9276Z" fill="black"/>
<path d="M4.9276 15.0719H1.3916C2.2556 16.5279 3.4716 17.7439 4.9276 18.6079V15.0719Z" fill="black"/>
<path d="M15.0894 15.0719V18.6079C16.5454 17.7439 17.7614 16.5279 18.6254 15.0719H15.0894Z" fill="black"/>
<path d="M14.9437 10.0801H10.0957V14.9281H14.9437V10.0801Z" fill="black"/>
<path d="M20.0014 10.0801H15.0894V14.9121H18.7214C19.5214 13.4881 20.0014 11.8401 20.0014 10.0801Z" fill="black"/>
<path d="M15.0894 5.07202V9.92002H20.0014C19.9854 8.16002 19.5214 6.51202 18.7054 5.07202H15.0894Z" fill="black"/>
</svg>
