<svg width="20" height="20" viewBox="0 0 20 20" fill="none" xmlns="http://www.w3.org/2000/svg">
<path d="M8.32769 0.0107366C4.02481 0.618577 0.617712 4.00969 0.0258665 8.31257C-0.0701084 9.03238 0.489745 9.67221 1.22555 9.67221H8.50365C9.17547 9.67221 9.70333 9.12835 9.70333 8.47253V1.19443C9.68734 0.474619 9.0475 -0.0852383 8.32769 0.0107366Z" fill="black"/>
<path d="M0.0102483 11.6717C0.618089 15.9745 4.00921 19.3816 8.31208 19.9735C9.03189 20.0695 9.67172 19.5096 9.67172 18.7738V11.4957C9.67172 10.8239 9.12787 10.296 8.47204 10.296H1.19394C0.474131 10.312 -0.0857266 10.9519 0.0102483 11.6717Z" fill="black"/>
<path d="M11.672 19.9895C15.9749 19.3816 19.382 15.9905 19.9739 11.6876C20.0698 10.9678 19.51 10.328 18.7742 10.328H11.4961C10.8242 10.328 10.2964 10.8719 10.2964 11.5277V18.8058C10.3124 19.5256 10.9522 20.0855 11.672 19.9895Z" fill="black"/>
<path d="M10.312 1.21043V8.48853C10.312 9.16035 10.8559 9.68822 11.5117 9.68822H18.7898C19.5096 9.68822 20.0855 9.04838 19.9895 8.32857C19.3816 4.0257 15.9905 0.618594 11.6876 0.0267487C10.9518 -0.085222 10.312 0.474626 10.312 1.21043Z" fill="black"/>
</svg>
