<svg width="20" height="20" viewBox="0 0 20 20" fill="none" xmlns="http://www.w3.org/2000/svg">
<path d="M6.48052 4.624V0H5.04053V4.624L5.76053 5.344L6.48052 4.624Z" fill="black"/>
<path d="M6.91189 6.48004H13.1039L13.8239 5.76004L13.1039 5.04004H6.91189L6.19189 5.76004L6.91189 6.48004Z" fill="black"/>
<path d="M14.9761 4.624V0H13.5361V4.624L14.2561 5.344L14.9761 4.624Z" fill="black"/>
<path d="M4.624 5.04004H0V6.48004H4.624L5.344 5.76004L4.624 5.04004Z" fill="black"/>
<path d="M5.04053 15.3919V19.9999H6.48052V15.3919L5.76053 14.6719L5.04053 15.3919Z" fill="black"/>
<path d="M15.3919 14.976H19.9999V13.536H15.3919L14.6719 14.256L15.3919 14.976Z" fill="black"/>
<path d="M13.5361 6.91202V13.104L14.2561 13.824L14.9761 13.104V6.91202L14.2561 6.19202L13.5361 6.91202Z" fill="black"/>
<path d="M19.9999 5.04004H15.3919L14.6719 5.76004L15.3919 6.48004H19.9999V5.04004Z" fill="black"/>
<path d="M4.624 13.536H0V14.976H4.624L5.344 14.256L4.624 13.536Z" fill="black"/>
<path d="M6.48052 13.104V6.91202L5.76053 6.19202L5.04053 6.91202V13.104L5.76053 13.824L6.48052 13.104Z" fill="black"/>
<path d="M13.1039 13.536H6.91189L6.19189 14.256L6.91189 14.976H13.1039L13.8239 14.256L13.1039 13.536Z" fill="black"/>
<path d="M13.5361 15.3919V19.9999H14.9761V15.3919L14.2561 14.6719L13.5361 15.3919Z" fill="black"/>
</svg>
