<svg width="20" height="20" viewBox="0 0 20 20" fill="none" xmlns="http://www.w3.org/2000/svg">
<path d="M10 3.136C13.776 3.136 16.864 6.208 16.864 10C16.864 13.792 13.792 16.864 10 16.864C6.208 16.864 3.136 13.792 3.136 10C3.136 6.208 6.208 3.136 10 3.136ZM10 0C4.48 0 0 4.48 0 10C0 15.52 4.48 20 10 20C15.52 20 20 15.52 20 10C20 4.48 15.52 0 10 0Z" fill="black"/>
<path d="M10 0.00012207C4.48 0.00012207 0 4.48012 0 10.0001H10V0.00012207Z" fill="black"/>
<path d="M10.001 19.9841C15.521 19.9841 20.001 15.5041 20.001 9.98413H10.001V19.9841Z" fill="black"/>
</svg>
