<svg width="20" height="20" viewBox="0 0 20 20" fill="none" xmlns="http://www.w3.org/2000/svg">
<path d="M12.0702 0H7.9295C7.22606 0 6.6665 0.559556 6.6665 1.26299V5.40368C6.6665 6.10711 7.22606 6.66666 7.9295 6.66666H12.0702C12.7736 6.66666 13.3332 6.10711 13.3332 5.40368V1.26299C13.3332 0.559556 12.7576 0 12.0702 0Z" fill="black"/>
<path d="M7.9295 19.984H12.0702C12.7736 19.984 13.3332 19.4245 13.3332 18.7211V14.5804C13.3332 13.8769 12.7736 13.3174 12.0702 13.3174H7.9295C7.22606 13.3174 6.6665 13.8769 6.6665 14.5804V18.7211C6.6665 19.4085 7.24205 19.984 7.9295 19.984Z" fill="black"/>
<path d="M13.333 7.91362V12.0543C13.333 12.7577 13.8926 13.3173 14.596 13.3173H18.7367C19.4401 13.3173 19.9997 12.7577 19.9997 12.0543V7.91362C19.9997 7.21019 19.4401 6.65063 18.7367 6.65063H14.596C13.8926 6.65063 13.333 7.22617 13.333 7.91362Z" fill="black"/>
<path d="M-0.000488281 7.91362V12.0543C-0.000488281 12.7577 0.559067 13.3173 1.2625 13.3173H5.40319C6.10663 13.3173 6.66618 12.7577 6.66618 12.0543V7.91362C6.66618 7.21019 6.10663 6.65063 5.40319 6.65063H1.2625C0.575055 6.65063 -0.000488281 7.22617 -0.000488281 7.91362Z" fill="black"/>
</svg>
