<svg width="512" height="512" viewBox="0 0 512 512" fill="none" xmlns="http://www.w3.org/2000/svg">
<path d="M235.443 44.322C237.907 44.2001 241.044 43.9073 240.723 47.125C239.019 49.0975 234.287 50.0143 231.8 50.8352L224.607 53.5016C206.626 61.1405 194.795 73.7914 190.754 93.625L190.199 97.9067C189.604 102.293 189.297 107.559 190.015 111.932L190.655 116.669L190.375 117.492C187.827 114.316 186.543 108.603 185.962 104.648C181.409 73.6467 206.026 48.6568 235.443 44.322Z" fill="#FFA200" fill-opacity="0.6"/>
<path d="M462.728 433.875L463.169 433.791C464.216 433.624 465.371 433.932 466.427 434.018C474.905 434.706 489.835 439.905 480.572 450.357C464.987 467.942 406.197 471.52 384.254 474.365L331.546 480.428L322.296 481.057C324.461 480.098 326.727 479.577 329 478.946L382.5 467.255C407.506 463.201 433.275 461.257 457.373 453.056C464.017 450.795 473.138 448.529 474.825 440.736C473.74 438.696 471.85 437.34 469.716 436.544L462.728 433.875Z" fill="#FFA200" fill-opacity="0.6"/>
<path d="M301.067 457.59C300.744 460.076 297.704 462.936 296.222 465.004L292.724 470.146C287.01 477.766 278.238 480.28 269.25 481.529L255.875 483.248C250.749 483.729 245.64 484.18 240.5 484.414L191.375 484.854L94.4716 493.625L74.5077 493.758C64.6293 493.748 52.2796 494.299 43.0818 489.968L183.931 479.092C179.301 473.906 174.668 467.813 173.341 460.843C166.79 463.252 160.757 465.219 153.891 466.616L127.379 470.875C103.847 474.894 76.0725 480.797 54.827 466.463C32.6151 451.477 28.1215 425.589 32.7347 400.5C33.5798 395.904 34.595 391.424 36.4979 387.134C38.5921 382.412 38.5618 381.57 44.0539 380.925L44.7938 383.303C47.4591 382.649 49.8182 380.701 52.6248 380.027C58.6368 378.583 65.0047 378.053 71.1082 376.939C84.3713 374.518 97.4317 371.569 110.912 370.424L120.43 370.092C105.605 362.998 107.629 345.829 107.054 332L106.424 313.622C106.352 299.298 109.886 279.864 127.132 277.634L124.995 279.378C129.748 284.279 137.083 287.117 143.675 288.561L150.688 289.82C159.4 291.807 181.802 288.931 190.625 287.753L235.92 279.878C231.518 273.851 223.372 271.026 216.621 268.6L205.211 264.465C192.546 259.89 185.607 256.358 175.842 246.94C178.176 243.752 178.047 244.991 177.702 240.875L176.782 228.895C176.322 216.105 176.482 202.368 178.743 189.75C182.849 166.826 208.258 168.578 225.834 168.49C225.194 168.308 224.557 168.144 223.959 167.847L218.829 165.46C205.509 158.498 194.286 147.379 185.005 135.75C168.792 115.437 161.404 89.5347 172.105 64.5375C187.65 28.2242 232.146 4.91847 269.843 21.1136C285.833 27.9831 302.311 41.9506 308.943 58.5185C306.322 55.8358 304.21 52.6475 301.6 49.927C288.511 36.2808 273.326 26.2116 254.75 22.2206L253.875 22.0045C251.5 21.5561 248.859 21.7338 246.44 21.7294C205.817 21.6555 167.873 60.4833 176.751 101.125C183.087 130.129 213.23 163.779 244.021 165.452C260.481 166.346 276.862 160.776 289.116 149.707C309.066 131.687 318.512 95.7927 312.957 69.6105C312.663 68.2233 311.558 65.976 311.625 64.6756L311.793 64.9722C313.668 68.3512 314.652 72.1794 315.437 75.9348C321.039 102.729 313.952 137.505 291.544 155.055C288.205 157.67 284.503 159.787 280.797 161.828L285.501 162.86C297.097 165.613 316.9 172.854 322.91 182.851L323.908 184.625C325.465 188.172 325.637 192.698 326.033 196.5C327.573 211.258 328.886 233.792 323.616 248.062C336.203 257.86 334.957 266.351 336.147 280.598C337.509 296.903 339.983 313.302 338.181 329.657L343.835 330.46C359.683 332.734 375.178 338.009 388.633 346.779C400.281 354.371 404.758 361.131 407.34 374.248C411.439 395.076 412.147 442.06 394.806 454.729L392.744 456.105C386.135 460.026 376.421 460.686 368.874 461.652C346.68 464.493 321.325 468.751 301.179 457.103L301.067 457.59ZM208.007 172.188L207.535 172.131C201.924 171.553 194.728 174.173 190.49 177.796C183.496 183.775 182.062 193.185 181.026 201.82L179.724 215.114C179.264 221.373 178.786 239.036 180.808 244.241C187.796 248.533 195.529 251.711 203.457 253.801L223.009 258.327C232.581 260.879 237.951 263.267 247.992 263.26L264.458 262.43C277.906 261.3 282.74 259.449 295.535 254.581C310.65 248.831 318.179 246.829 320.274 228.75C321.669 216.707 323.578 188.507 313.125 182.034C312.413 181.593 311.699 181.169 310.875 181.412L309.796 181.823L309.788 180.605L309.396 179.844C303.796 175.885 277.629 165.561 274.125 166.749C263.13 170.479 252.105 175.581 239.95 173.152L229 170.765C223.281 169.199 214.376 172.132 208.285 172.168L208.007 172.188ZM335.615 336.253C325.507 347.52 300.222 351.246 285.638 354.129C276.199 355.994 267.222 358.131 257.539 357.367C246.481 356.496 252.576 356.636 245.454 365.078C261.096 368.683 270.94 368.52 285.055 378.938C292.85 384.692 292.288 384.96 293.568 394.236L295.672 412.125C296.462 420.332 297.797 444.881 302.171 451.072C308.729 460.354 348.55 455.277 358.749 453.675C370.222 451.872 386.826 449.957 392.671 438.143C400.491 420.077 398.703 390.598 396.592 370.441C385.238 371.622 374.084 374.304 362.927 376.645L328.819 384.219C320.579 386.413 312.013 388.739 303.504 386.509C310.966 377.826 343.852 373.017 356.001 370.488L375.25 365.818C380.241 364.428 386.086 363.046 390.332 360C376.778 351.402 361.198 345.827 346.192 340.344L335.615 336.253ZM236.613 374.215C221.528 381.652 205.264 383.256 188.645 382.732L188.73 383.048C189.305 385.287 189.258 387.56 189.265 389.855L188.533 416.817C188.398 422.314 187.797 427.922 187.125 433.379C186.291 440.158 179.602 464.767 184.972 469.584C192.028 475.913 203.259 476.524 212.257 476.512L230.374 476.439C230.834 476.432 231.517 476.319 231.937 476.432L245.068 475.473C257.694 474.92 271.82 474.924 280.709 464.375C285.893 458.223 287.078 430.917 286.237 423.625C285.167 414.335 280.646 394.902 275.234 386.709C269.372 383.621 263.174 383.339 257.002 381.379C251.257 379.554 242.377 373.421 236.613 374.215ZM312.47 259.625C291.046 266.958 267.515 277.364 244.5 272.071C243.845 271.921 242.235 271.344 241.633 271.513C249.284 277.762 247.445 285.512 247.454 294.277L247.493 322.926C247.509 330.68 246.045 341.481 253.5 346.489C259.46 350.493 268.816 348.46 275.375 346.971L276.25 346.747C284.14 344.708 291.676 341.754 299.461 339.408L312 335.938C318.276 334.236 322.065 333.355 325.555 327.549L326.539 325.741C328.606 320.299 328.837 309.725 329.17 303.22L329.276 290.742C329.287 282.967 329.075 279.275 328.009 271.7C315.978 286.367 292.254 292.085 274.174 292.405C268.554 292.505 261.105 292.559 256.549 288.805C251.918 284.99 256.261 282.331 260.382 282.258C263.852 282.196 267.077 282.787 270.5 283.171C282.98 284.571 319.703 280.249 326.379 269.106C322.894 262.247 319.083 262.272 313.251 259.468L312.47 259.625Z" fill="#FFA200" fill-opacity="0.6"/>
<path d="M301.067 457.59L298.856 455.81L299.301 451.149C300.822 453.938 300.837 454.007 301.179 457.103L301.067 457.59Z" fill="#FFA200" fill-opacity="0.6"/>
<path d="M265.685 294.301C267.097 294.235 268.431 294.291 269.837 294.419C268.85 301.579 265.878 308.107 266.908 315.517C267.26 318.049 269.644 326.814 264.385 325.728C258.36 321.797 253.778 296.752 265.685 294.301Z" fill="#FFA200" fill-opacity="0.6"/>
<path d="M255.821 386.625C256.002 386.689 256.168 386.787 256.338 386.875L256.195 387.422C255.708 389.029 253.811 390.884 252.338 391.674L252.06 391.818C244.949 395.748 227.901 397.422 219.75 398.755L208.591 400.805C205.321 401.451 200.323 402.978 197.172 401.375C189.627 395.722 210.482 394.51 212.125 394.249L232.006 391.301C240.177 390.152 247.903 389.077 255.821 386.625Z" fill="#FFA200" fill-opacity="0.6"/>
<path d="M214.684 406.083C219.252 405.486 215.36 409.102 214.2 410.45C207.053 418.749 204.987 431.548 206.49 442.133C206.79 444.252 209.492 455.903 204.125 454.225C197.409 447.514 199.004 421.468 204 412.916L205.297 410.875C207.616 408.001 211.083 406.524 214.684 406.083Z" fill="#FFA200" fill-opacity="0.6"/>
<path d="M123.128 280.377C129.584 293.723 152.829 298.23 166.062 297.101L213.203 290.511L234.676 286.544C235.763 286.381 239.936 285.668 240.758 286.161C242.546 291.503 242.049 296.683 242.039 302.24L241.969 336.502C241.935 354.638 241.156 362.125 223.486 367.874C210.885 371.975 196.398 373.989 183.106 372.481C173.115 371.589 139.878 362.956 130.491 357.777C128.216 353.477 129.131 346.138 128.995 341.439L128.925 306.397C129.031 305.166 129.387 299.278 126.25 301.545C122.366 304.352 123.238 323.404 123.239 327.665L123.322 340.071C123.475 346.062 124.425 351.531 124.651 357.731C123.72 356.984 122.542 356.619 121.5 356.04C108.951 349.063 110.284 330.363 110.256 317.926C110.228 304.92 109.378 287.336 123.128 280.377Z" fill="#FFA200"/>
<path d="M178.971 309.375C183.872 307.619 180.57 316.394 180.164 318.413L176.689 349.727C176.579 351.152 176.799 354.782 175.25 355.471L174.5 354.875L174.112 354.285C169.095 346.327 171.515 330.728 173.428 321.967C174.219 318.341 175.691 311.482 178.971 309.375Z" fill="#FFA200" fill-opacity="0.6"/>
<path d="M325.605 387.564C332.814 387.077 327.279 393.872 325.593 398.328C322.694 405.991 320.701 413.996 319.431 422.08C318.865 425.685 318.833 429.578 317.894 433.084L317.781 433.5C317.606 434.151 317.461 434.588 317.022 435.125L316.375 435.028C311.339 431.909 311.646 421.077 312.523 415.557L312.636 414.77C313.484 407.371 316.802 389.715 325.605 387.564Z" fill="#FFA200" fill-opacity="0.6"/>
<path d="M121.703 371.346C123.424 371.135 124.982 371.782 126.602 372.275L159.848 381.038C133.622 384.65 111.662 396.386 83.3451 394.39C80.323 394.177 68.9092 392.058 74.5729 399.747C82.1932 410.092 105.576 401.403 115.792 398.502L150.97 387.369C155.978 385.553 161.736 383.43 167.125 384.253C183.981 386.828 179.508 392.839 177.812 405.521C176.303 416.803 175.378 428.057 173.109 439.236C170.182 449.644 167.313 455.81 156.47 458.527C148.126 460.618 139.144 461.244 130.625 462.499C100.932 466.874 65.3488 475.932 43.7881 447.243C32.9644 432.841 32.9024 401.655 41.1811 385.852C45.9957 382.546 52.0414 382.732 57.6302 382.066L121.703 371.346Z" fill="#FFA200"/>
<path d="M56.6565 414.375C59.941 413.675 58.9674 417.695 58.7136 419.623L57.5954 428.08C57.0732 434.377 57.4882 441.036 57.5374 447.367C57.0614 446.727 56.6215 446.299 55.984 445.817L55.7725 445.66L54.23 442.89C51.4078 436.581 48.8803 418.212 56.6565 414.375Z" fill="#FFA200" fill-opacity="0.6"/>
<path d="M96.0876 412.875C96.4772 413.192 96.4024 412.993 96.3787 413.443C95.8819 422.87 94.2893 432.359 95.7894 441.813C96.1253 443.931 97.3912 449.555 96.2614 451.375L95.6246 451.51C94.9585 451.291 94.6559 450.958 94.1994 450.438L93.6179 449.765C88.603 441.792 88.4685 418.669 96.0876 412.875Z" fill="#FFA200" fill-opacity="0.6"/>
<path d="M208.007 172.188L208.285 172.168C214.376 172.132 223.281 169.199 229 170.765L239.95 173.152C252.105 175.581 263.13 170.479 274.125 166.749C277.629 165.561 303.796 175.885 309.396 179.844L309.788 180.605L309.796 181.823L310.875 181.412C311.699 181.169 312.413 181.593 313.125 182.034C323.578 188.507 321.669 216.707 320.274 228.75C318.179 246.829 310.65 248.831 295.535 254.581C282.74 259.449 277.906 261.3 264.458 262.43L247.992 263.26C237.951 263.267 232.581 260.879 223.009 258.327L203.457 253.801C195.529 251.711 187.796 248.533 180.808 244.241C178.786 239.036 179.264 221.373 179.724 215.114L181.026 201.82C182.062 193.185 183.496 183.775 190.49 177.796C194.728 174.173 201.924 171.553 207.535 172.131L208.007 172.188ZM208.007 172.166C207.988 173.586 208.513 174.815 208.577 176.198C211.518 182.2 220.52 186.06 226.586 188.124C248.839 195.692 273.091 189.665 295.025 184.111L302.961 182.135C305.232 181.644 307.604 181.417 309.788 180.605L309.396 179.844C303.796 175.885 277.629 165.561 274.125 166.749C263.13 170.479 252.105 175.581 239.95 173.152L229 170.765C223.281 169.199 214.376 172.132 208.285 172.168L208.007 172.166Z" fill="#FFA200"/>
<path d="M232.913 220.548L233.099 220.277C235.725 216.352 236.707 212.135 240.313 208.819C241.115 215.375 240.495 222.426 240.49 229.049C240.488 231.569 242.479 239.806 238.375 239.691C235.029 236.395 234.762 229.618 232.824 225.431L230.495 222.965C231.09 222.049 232.108 221.291 232.913 220.548Z" fill="#FFA200" fill-opacity="0.6"/>
<path d="M203.148 209.375C210.252 208.389 204.85 229.417 204.261 232.658C206.888 230.041 215.474 220.554 219.982 222.375C219.193 223.564 213.768 227.136 212.143 228.556C202.942 236.814 208.071 235.369 204.17 243.946C202.595 247.41 200.858 243.334 200.763 241.112L200.758 234.623C200.773 233.44 199.945 232.264 199.909 230.942C199.808 227.187 200.139 211.292 203.148 209.375Z" fill="#FFA200" fill-opacity="0.6"/>
<path d="M309.796 181.823L247.25 198.537C235.27 201.445 211.159 191.889 207.901 178.921C207.641 177.887 208.056 177.066 208.577 176.198C211.518 182.2 220.52 186.06 226.586 188.124C248.839 195.692 273.091 189.665 295.025 184.111L302.961 182.135C305.232 181.644 307.604 181.417 309.788 180.605L309.796 181.823Z" fill="#FFA200" fill-opacity="0.6"/>
</svg>
