<svg width="512" height="512" viewBox="0 0 512 512" fill="none" xmlns="http://www.w3.org/2000/svg">
<path d="M126.863 37.763C139.805 36.6106 153.971 56.8793 155.697 68.2896L155.963 69.7321C157.193 75.6729 155.387 80.928 152.175 85.8665C153.72 86.05 155.45 85.8697 157.013 85.8386L221.757 82.9987C223.834 82.9202 225.899 82.5532 227.962 82.5058L253.75 81.3476L336.099 79.6449C338.082 79.5534 340.045 79.1416 342 79.057L362.545 78.9086L363.432 70.9763C366.718 53.3573 386.338 35.3772 404.75 38.7263C408.682 39.4417 413.664 42.6366 417 44.7945C427.435 51.5439 433.397 66.9958 430.186 79.1627L430.092 79.5116C437.488 77.9166 460.935 79.0322 467.709 80.3608C500.346 86.7627 506.239 113.043 507.671 142.212L509.031 168.274C509.226 170.881 509.763 173.472 509.838 176.085L509.719 286.126C509.643 288.59 509.129 291.072 509.032 293.494C508.415 308.782 507.314 323.328 504.198 338.323C503.504 341.662 503.623 345.003 503.613 348.393L503.529 361.675C503.351 368.847 502.649 376.131 501.751 383.25C494.222 442.936 462.125 456.965 409.213 463.063L331.415 468.434C329.724 468.466 328.06 468.716 326.375 468.787L283.983 469.82C281.832 469.879 279.711 470.279 277.579 470.318L187.443 469.782L125.04 469.328C123.592 469.293 122.189 469.055 120.75 468.96L107.625 468.458C66.7632 466.877 16.3151 467.342 3.98594 417.905C2.03214 410.07 2.02331 402.633 2.01855 394.618L4.78261 344.215L18.2479 219.5L22.3579 156.784C23.4606 123.683 24.5154 107.457 53.5003 90.2536C56.887 88.2435 66.6621 84.6259 67.296 80.4706L67.4472 79.625C68.0894 77.0565 69.1513 75.7717 71.3837 74.5002C80.7145 78.4264 71.7748 85.056 67.3707 88.6364L85.4857 83.5594C85.8767 81.9933 85.5455 80.1331 85.7575 78.5C88.5259 57.1663 99.2244 47.6005 117.903 40.856L126.863 37.763ZM109.751 63.8813C112.357 69.4051 108.283 73.5592 106.72 78.5L106.596 78.8711C105.856 81.2112 106.49 83.7688 105.805 86.1125C111.831 106.283 142.315 108.627 146.866 83.9252C148.022 77.6491 135.307 53.7807 130.125 54.483C128.977 54.6385 127.029 55.595 126.068 54.5L126.625 54.186C127.556 54.2435 127.71 54.2266 128.5 54.7953L129.194 54.125C124.757 53.1714 127.79 52.258 121.486 55.0083C116.821 57.0439 113.126 60.1244 109.751 63.8813ZM400.607 54.2284C389.896 55.7023 381.425 70.8642 380.094 81.1797C386.665 102.153 415.507 107.461 419.357 83.7907C421.747 69.0924 416.019 56.6552 400.607 54.2284Z" fill="#060505"/>
<path d="M109.751 63.8813C112.357 69.4051 108.283 73.5592 106.72 78.5L106.596 78.8711C105.856 81.2112 106.49 83.7688 105.805 86.1125C101.386 79.4072 104.899 69.6369 109.751 63.8813Z" fill="#FFA200"/>
<path d="M380.094 81.1797C377.356 78.8033 377.63 72.1131 378.172 68.877L378.238 68.5C379.814 59.0322 392.098 50.6536 400.607 54.2284C389.896 55.7023 381.425 70.8642 380.094 81.1797Z" fill="#FFA200"/>
<path d="M399.843 71.5797C411.002 70.9705 411.906 84.6124 401.049 86.754C389.678 86.8244 389.061 74.8541 399.843 71.5797Z" fill="#FFA200"/>
<path d="M125.549 71.065C136.58 70.185 136.982 86.3374 126.305 88.9947C115.382 89.7786 114.398 73.1933 125.549 71.065Z" fill="#FFA200"/>
<path d="M475.759 372.565C476.4 372.413 476.1 372.38 476.664 372.625C464.226 387.487 450.348 400.906 436.481 414.402L424.579 425.869C421.992 428.306 419.385 430.854 416.506 432.949L416.013 432.625L414.919 425.28C412.911 415.616 414.858 398.52 419.97 390.472C432.873 370.158 456.264 376.916 475.759 372.565Z" fill="#FFECCC"/>
<path d="M490.109 365.125L490.25 365.508C490.394 366.203 490.09 367.522 490.001 368.259L489.231 374.98C483.611 428.385 463.076 442.602 410.243 447.685C407.274 447.971 404.358 448.747 401.375 448.917L401.125 448.742C402.213 448.086 403.774 447.908 405 447.507C417.984 443.262 428.262 432.948 438.125 423.932L459.011 403.805C470.415 391.811 480.87 378.851 490.109 365.125Z" fill="#FFECCC"/>
<path d="M361.168 84.7134L362.111 84.558C362.864 84.5133 364.354 90.3096 364.851 91.3928C369.991 102.583 383.53 113.356 396.459 110.941C413.219 107.81 419.416 97.1984 427.811 84.8856L441.374 84.4635C457.288 84.2627 473.861 83.938 486.038 95.8774C497.269 106.89 500.472 123.106 501.492 138.278L501.787 154.405L175.061 163.803C173.856 163.93 172.461 164.103 171.239 164.138L144.432 164.824C141.833 164.917 139.383 165.591 136.789 165.623L37.6357 166.015L38.374 140.625C38.8349 129.342 41.1255 117.215 47.9844 107.953C51.1876 103.628 58.1867 96.0509 62.8392 94.0982C63.6191 93.7709 85.5186 86.5987 85.6395 86.6047C86.7701 92.196 89.4285 96.5332 93.0386 100.913C102.826 112.786 116.351 117.623 130.188 110.385C137.523 106.548 143.832 101.42 148.143 94.3115C148.781 93.2605 149.143 91.3905 150.621 91.3597L168.343 91.3259L243.308 88.3048L275.375 87.1681C277.964 87.0807 280.498 86.555 283.081 86.5192L306.374 86.4209C308.652 86.3705 310.866 85.903 313.133 85.8487L361.168 84.7134Z" fill="#FFA200"/>
<path d="M503.575 263.403L503.197 287.267C503.15 289.626 502.683 291.908 502.635 294.251L502.363 309.489C501.525 324.283 495.21 357.144 480.317 364.797C473.023 368.545 456.13 368.126 447.744 369.075C416.011 372.667 405.922 395.127 408.4 424.817L409.767 438.244C409.274 438.654 408.326 438.973 407.737 439.252C390.475 447.438 370.033 449.367 351.251 450.895L323.75 452.596L290.566 453.365C288.022 453.43 285.516 453.903 282.993 453.963L179.024 453.958C176.61 453.916 174.252 453.401 171.875 453.34L142.087 453.251C139.86 453.209 137.709 452.82 135.5 452.727L124.688 452.638L72.1406 449.533C56.6787 447.609 40.7056 442.909 29.6745 431.323C16.5152 417.502 18.0648 394.938 19.2696 377.334L35.746 201.625L37.3356 171.713L501.994 160.586L503.281 219.597L503.575 263.403Z" fill="#FFECCC"/>
<path d="M437.643 315.569L439.125 315.527C448.033 315.817 457.954 324.736 457.47 334.046C456.934 344.353 447.629 353.731 437.192 353.181C429.864 351.82 418.926 343.328 416.634 336.062C417.041 334.447 418.914 333.53 419.845 332.151C424.73 324.923 426.744 317.131 437.643 315.569Z" fill="#060505"/>
<path d="M436.802 321.304C442.727 320.983 449.416 324.941 451.226 330.756C452.807 335.834 443.311 343.167 439.313 344.234C436.206 344.34 433.524 343.527 430.878 341.859C423.809 337.403 422.89 334.703 427.411 327.922C429.761 324.398 432.6 322.14 436.802 321.304Z" fill="#FFECCC"/>
<path d="M341.079 315.294C352.019 314.391 361.165 322.057 362.745 332.878L362.909 334.094C363.951 344.665 355.438 351.923 345.567 352.815C340.807 353.145 336.33 352.093 332.264 349.614C315.379 339.321 324.864 318.945 341.079 315.294Z" fill="#060505"/>
<path d="M341.494 320.817L341.898 320.799C357.205 320.885 360.904 344.532 341.812 344.511C319.85 341.817 328.397 323.318 341.494 320.817Z" fill="#FFECCC"/>
<path d="M439.16 219.317C464.863 216.581 470.256 254.796 443.625 256.814C441.365 257.03 438.901 256.983 436.697 256.404L436.25 256.28C413.108 250.057 420.128 222.484 439.16 219.317Z" fill="#060505"/>
<path d="M437.889 224.794C453.096 222.826 460.478 247.642 441.681 249.377C423.314 250.712 422.327 230.136 437.889 224.794Z" fill="#FFECCC"/>
<path d="M345.659 220.549C369.182 218.586 377.855 254.57 349.891 258.484C322.071 258.944 320.444 225.12 345.659 220.549Z" fill="#060505"/>
<path d="M344.238 226.3C359.342 224.671 365.401 248.791 346.466 250.684C327.217 249.578 328.934 230.456 344.238 226.3Z" fill="#FFECCC"/>
<path d="M159.492 229.328L159.643 229.31C184.971 227.726 189.409 265.91 162.095 267.354C157.258 267.217 153.102 266.036 149.125 263.199C132.403 251.269 143.735 231.643 159.492 229.328Z" fill="#060505"/>
<path d="M158.302 235.315C174.379 234.276 177.055 258.797 159.415 259.704C139.252 257.585 143.769 238.053 158.302 235.315Z" fill="#FFECCC"/>
<path d="M71.8998 380.344C95.1241 379.056 102.477 416.936 73.8177 418.499C41.7324 417.086 50.9481 382.336 71.8998 380.344Z" fill="#060505"/>
<path d="M69.9486 386.315C84.2829 385.167 90.5149 410.061 71.8511 410.78C52.063 410.6 55.4627 389.95 69.9486 386.315Z" fill="#FFECCC"/>
<path d="M248.934 316.815C263.388 316.087 274.573 327.874 270.896 341.584L270.778 342C268.64 349.888 261.363 353.736 253.643 354.714C226.141 355.342 224.396 322.712 248.934 316.815Z" fill="#060505"/>
<path d="M248.308 322.538C263.731 321.253 268.462 345.816 249.813 347.251C230.735 345.173 232.166 326.972 248.308 322.538Z" fill="#FFECCC"/>
<path d="M165.768 380.338C189.38 379.248 194.543 413.155 173.444 417.714L173 417.806C171.281 418.18 169.663 418.248 167.91 418.289C159.598 418.228 147.732 412.954 146.641 403.544C145.452 393.284 155.736 381.48 165.768 380.338Z" fill="#060505"/>
<path d="M163.936 386.527L165.67 386.446C179.344 386.398 183.141 411.205 165.366 411.257C145.131 408.197 150.64 390.484 163.936 386.527Z" fill="#FFECCC"/>
<path d="M251.655 222.578C253.319 222.329 255.463 222.341 257.125 222.634L257.5 222.705C277.831 226.245 280.329 259.269 255.187 260.838C227.937 262.132 226.672 226.33 251.655 222.578Z" fill="#060505"/>
<path d="M250.523 228.3C266.861 227.456 270.151 251.777 252.332 253.127C232.672 252.07 234.737 232.293 250.523 228.3Z" fill="#FFECCC"/>
<path d="M161.34 319.596L161.55 319.58C185.65 318.008 191.395 357.021 162.325 358.096C150.83 357.577 142.467 350.496 141.39 338.771C140.634 330.544 153.052 320.378 161.34 319.596Z" fill="#060505"/>
<path d="M159.016 325.542L159.305 325.514C175.951 324.557 178.165 350.186 159.856 350.28C153.775 350.052 147.772 345.725 146.305 339.734C144.857 333.818 154.167 326.663 159.016 325.542Z" fill="#FFECCC"/>
<path d="M70.3968 320.096C95.1367 318.77 100.343 356.005 71.811 358.425C44.5759 359.927 44.2312 322.754 70.3968 320.096Z" fill="#060505"/>
<path d="M68.3473 326.044C83.1158 324.724 88.2778 348.956 69.6187 350.448C49.6017 349.093 53.6607 328.948 68.3473 326.044Z" fill="#FFECCC"/>
</svg>
