<svg width="512" height="512" viewBox="0 0 512 512" fill="none" xmlns="http://www.w3.org/2000/svg">
<path d="M112.175 33.8595L114.166 33.7948C156.02 32.7012 198.217 60.0393 224.549 91.4853L243.54 117.164C244.24 118.208 244.88 119.594 245.783 120.453C266.542 87.3756 307.57 54.6427 347.198 51.3538C360.217 50.2733 370.644 52.7469 383.323 53.8472C389.204 54.3575 395.19 53.6813 401.044 54.2943C445.671 58.9671 485.179 86.9351 501.625 128.87C508.129 145.455 509.924 158.336 509.947 175.645C509.981 200.224 509.152 214.029 499.889 237.541C475.866 298.521 420.16 338.603 370.179 377.295L242.839 469.187C236.391 473.417 229.815 476.257 222 476.29C213.002 476.329 210.398 473.023 205.177 466.575L176.971 433.443L136.254 395.622L89.9861 347.892L47.9832 298C32.1307 277.362 17.2507 251.996 9.51391 227.012C7.85514 221.655 6.8027 216.063 5.57545 210.595C-2.78641 173.338 3.46834 125.979 25.8135 95.0201C28.4226 91.4052 29.9866 87.0246 34.8683 88.0634C35.1047 83.0309 36.2008 81.6429 39.4336 77.8688L44.4684 71.8367C62.1006 50.8846 84.6589 36.1896 112.175 33.8595ZM15.14 194.416L15.7814 200.75L19.6424 220.788L21.5482 227.016L25.186 236.611L27.2825 241.349L32.6055 253.161C33.7861 255.744 35.0917 258.736 36.8671 260.973L43.3418 272.057C45.7436 276.455 55.3512 289.826 58.7962 293.779L63.8702 300.414L71.8741 310.736L78.362 318.718L86.5729 327.924L93.0421 335.069L100.384 343.373L114.757 358.912L123.26 367.597C126.338 371.065 131.427 376.602 135.077 379.544L141.476 385.559L147.25 391.05L151.338 394.663L161.513 404.141L168.372 410.54L178.85 420.704L186.421 428.072L194.885 437.128C196.84 436.565 198.463 435.509 200.242 434.557L206.415 431.409C221.586 423.787 232.471 417.021 248.816 411.827C250.707 411.226 252.458 410.061 254.383 409.624L255.045 410.85C271.568 402.662 285.812 391.05 300.625 380.251L358.969 334.736L404.35 291.789L429.546 263.759C441.772 248.962 452.311 233.488 459.465 215.541C461.494 210.617 462.854 205.66 464.127 200.497C466.116 195.101 466.953 188.193 467.381 182.471L467.818 179.755C468.389 176.899 468.292 173.922 468.338 171.02C468.4 163.206 468.546 155.904 467.206 148.157L463.571 133.026C463.522 129.254 459.262 120.8 457.415 117.738L451.931 107.872C450.831 104.626 447.181 100.367 444.801 97.917C442.679 95.1732 439.786 92.7475 437.184 90.4622C436.068 89.3416 434.951 88.4352 433.646 87.5414L426.106 82.1249L422.47 79.6814L410.499 73.0899C403.254 68.9729 395.072 65.7522 386.93 64.0118L376.531 62.1732C373.139 61.4305 369.796 60.8212 366.318 60.6152C334.201 57.9672 308.273 70.1726 283.963 91.125L283.218 91.8257C277.669 96.1441 272.073 101.476 267.602 106.902L267.266 107.211C261.689 112.429 256.831 119.818 253.065 126.349C251.677 128.755 250.531 132.34 248.681 134.324C244.507 138.799 239.895 131.847 238.164 128.706L234.126 121.823C213.563 88.8303 179.264 58.4462 141.5 48.2189C95.6171 35.7925 73.6414 55.1411 46.3157 86.6938C42.4941 91.1065 38.1739 94.9149 34.6405 99.5962C16.9376 123.05 9.88511 165.11 15.14 194.416ZM194.885 437.128L207.107 451C219.203 432.913 236.352 421.177 255.045 410.85L254.383 409.624C252.458 410.061 250.707 411.226 248.816 411.827C232.471 417.021 221.586 423.787 206.415 431.409L200.242 434.557C198.463 435.509 196.84 436.565 194.885 437.128Z" fill="#060505"/>
<path d="M428.32 281.221L428.938 281.438C429.265 281.179 429.485 280.871 429.91 280.853L424.215 287.553C423.991 287.024 423.925 287.083 423.455 286.806L428.32 281.221Z" fill="#060505"/>
<path d="M423.455 286.806C423.925 287.083 423.991 287.024 424.215 287.553L414.817 297.56L415.442 296.432L414.752 296.364C417.233 293.027 420.671 289.947 423.455 286.806Z" fill="#060505"/>
<path d="M385.439 325.444C383.426 327.54 381.11 329.369 378.998 331.372L366.809 342.924C365.494 344.166 363.436 346.752 361.812 347.436L362.501 345.875L372.895 335.964C376.507 332.363 380.27 328.098 384.415 325.172C384.834 325.38 384.95 325.421 385.439 325.444Z" fill="#060505"/>
<path d="M414.752 296.364L415.442 296.432L414.817 297.56L398.563 313.267L385.439 325.444C384.95 325.421 384.834 325.38 384.415 325.172L398.253 312.385L414.752 296.364Z" fill="#060505"/>
<path d="M361.109 340.875L361.661 341.312C358.019 345.037 354.877 349.903 351.584 353.004C349.067 355.374 346.228 357.434 343.555 359.625L317.642 380.375H317.075C321.478 376.158 326.503 372.525 331.294 368.767L347.423 355.358C352.452 350.959 356.312 345.517 361.109 340.875Z" fill="#060505"/>
<path d="M428.32 281.221L440.932 264.685C447.797 255.271 454.109 245.036 459.375 234.644C459.588 236.498 456.248 241.059 455.312 242.812L453.688 246.024C452.071 247.348 451.313 250.049 450 251.75L448.746 253.621C448.389 254.156 448.119 254.721 447.75 255.25L444.531 260.18C444.187 260.567 443.751 260.908 443.749 261.438L441.5 264.5L442.078 264.68C442.838 263.312 443.909 262.184 444.75 260.875L447.754 256.379C448.111 255.844 448.381 255.279 448.75 254.75L452.004 249.879C452.361 249.344 452.631 248.779 453 248.25L453.754 247.129C455.18 244.99 456.298 242.63 457.75 240.5L458.188 239.688C458.628 238.943 459.017 238.201 459.5 237.5L460.645 235.384C460.829 234.942 461.001 234.865 461.25 234.5L461.688 233.688C461.937 233.265 462.205 232.879 462.438 232.438L462.717 232.312C462.301 233.894 460.779 235.85 459.938 237.307C456.271 243.662 434.887 277.608 429.91 280.853C429.485 280.871 429.265 281.179 428.938 281.438L428.32 281.221Z" fill="#060505"/>
<path d="M15.1397 194.416C9.88481 165.11 16.9373 123.05 34.6402 99.5962C38.1736 94.9149 42.4938 91.1065 46.3154 86.6938C73.6411 55.1411 95.6168 35.7925 141.5 48.2189C179.264 58.4462 213.563 88.8303 234.126 121.823L238.164 128.706C239.895 131.847 244.507 138.799 248.681 134.324C250.531 132.34 251.677 128.755 253.065 126.349C256.831 119.818 261.689 112.429 267.266 107.211L267.602 106.902C272.073 101.476 277.669 96.1441 283.218 91.8257L283.963 91.125C308.273 70.1726 334.201 57.9672 366.318 60.6152C369.796 60.8212 373.139 61.4305 376.531 62.1732L386.93 64.0118C395.072 65.7522 403.254 68.9729 410.499 73.0899L422.47 79.6814L426.106 82.1249L433.646 87.5414C434.951 88.4352 436.068 89.3416 437.184 90.4622C439.786 92.7475 442.679 95.1732 444.801 97.917C447.181 100.367 450.831 104.626 451.931 107.872L457.415 117.738C459.262 120.8 463.522 129.254 463.571 133.026L467.206 148.157C468.546 155.904 468.4 163.206 468.338 171.02C468.292 173.922 468.389 176.899 467.818 179.755L467.381 182.471C466.953 188.193 466.116 195.101 464.127 200.497C462.854 205.66 461.494 210.617 459.465 215.541C452.311 233.488 441.772 248.962 429.546 263.759L404.35 291.789L358.969 334.736L300.625 380.251C285.812 391.05 271.568 402.662 255.045 410.85L254.383 409.624C252.458 410.061 250.707 411.226 248.816 411.827C232.471 417.021 221.586 423.787 206.415 431.409L200.242 434.557C198.463 435.509 196.84 436.565 194.885 437.128L186.421 428.072L178.85 420.704L168.372 410.54L161.513 404.141L151.338 394.663L147.25 391.05L141.476 385.559L135.077 379.544C131.427 376.602 126.338 371.065 123.26 367.597L114.757 358.912L100.384 343.373L93.0418 335.069L86.5726 327.924L78.3617 318.718L71.8737 310.736L63.8699 300.414L58.7959 293.779C55.3509 289.826 45.7433 276.455 43.3415 272.057L36.8668 260.973C35.0914 258.736 33.7858 255.744 32.6052 253.161L27.2822 241.349L25.1857 236.611L21.5479 227.016L19.6421 220.788L15.7811 200.75L15.1397 194.416ZM114.757 358.912L123.26 367.597C126.943 364.3 132.112 362.205 136.35 359.628L181.698 332.935C186.072 330.402 239.952 295.769 240.655 293.85C239.766 294.11 239.032 294.748 238.266 295.253L215.631 308.936L164.248 336.714L122.036 357.076C119.769 358.038 117.592 359.613 115.049 358.99L114.757 358.912ZM451.931 107.872L354.15 171.784L354.28 172.069C358.386 169.216 362.809 166.834 367.181 164.423L396.105 148.953C410.606 141.069 441.952 120.71 457.415 117.738L451.931 107.872ZM161.513 404.141L168.372 410.54C169.199 409.606 170.067 408.766 171.173 408.177C181.352 402.755 191.003 396.176 200.717 389.973L255.151 355.703C257.037 354.48 264.83 349.151 266.125 347.877C265.622 347.835 254.622 354.303 253.031 355.068L172.88 398.104C169.14 400.158 165.548 402.728 161.513 404.141ZM376.531 62.1732C375.304 62.2494 374.511 62.3561 373.401 62.8971L363.727 67.0549C350.901 73.0603 339.653 80.6742 328.25 88.9892L302.281 109.232C300.441 110.853 296.22 114.691 300.532 111.334L303.965 108.803C308.671 105.432 313.823 102.643 318.872 99.8209L368.73 72.6552L386.93 64.0118L376.531 62.1732ZM426.106 82.1249C423.934 85.115 421.535 86.369 418.454 88.2266L374.754 113.777C367.293 118.621 360.658 124.497 353.453 129.658L345.75 135.003C343.14 136.649 340.346 138.089 337.872 139.93L433.646 87.5414L426.106 82.1249ZM78.3617 318.718L86.5726 327.924L158.375 280.545C157.358 280.998 156.563 281.693 155.625 282.266L148.452 286.2L93.4911 312.1C90.4396 313.543 81.6679 318.436 78.7675 318.685L78.3617 318.718ZM410.499 73.0899C408.093 76.2998 405.073 77.7811 401.643 79.7043L348.75 113.473L340.889 119.406C339.457 120.587 338.05 121.685 337.113 123.317C350.392 112.06 365.191 106.968 380.713 99.5124L413.872 83.3439C416.72 82.0262 419.347 80.206 422.47 79.6814L410.499 73.0899ZM135.077 379.544L141.476 385.559C143.559 383.5 146.301 382.019 148.7 380.35C161.428 371.495 174.965 364.015 188.5 356.481L226.682 332.872C229.726 330.818 232.906 329.055 235.875 326.878L235.888 326.375C235.509 326.49 235.235 326.6 234.899 326.819L213.956 339.223L163.13 363.933L135.077 379.544ZM437.184 90.4622L437.027 90.7273C434.686 94.5857 429.781 96.436 426.124 98.7865L358.34 144.159L351.875 149.049C351.253 149.503 349.194 150.327 349.266 151.134C350.697 150.565 352.034 149.332 353.352 148.491L402.672 119.474L434.85 102.353C438.104 100.645 441.255 98.9555 444.801 97.917C442.679 95.1732 439.786 92.7475 437.184 90.4622ZM178.85 420.704L186.421 428.072C188.496 425.748 191.206 424.289 193.778 422.575L264.027 376.524C266.581 374.848 269.903 373.454 272.125 371.418V371.266C267.141 373.743 262.42 376.876 257.577 379.63L233.519 392.769L187.25 416.012C184.662 417.503 181.927 419.684 179.107 420.623L178.85 420.704ZM63.8699 300.414L71.8737 310.736C73.709 308.85 76.703 307.548 78.9509 306.147L107.774 286.796C119.737 278.82 131.438 271.106 141.875 261.129C141.408 260.982 137.436 264.32 136.723 264.819C126.572 271.913 115.263 278.194 104.041 283.463L87.635 290.753C81.9399 293.456 70.4572 299.822 64.2178 300.386L63.8699 300.414ZM467.381 182.471L467.818 179.755C468.389 176.899 468.292 173.922 468.324 171.02L468.126 166.397C465.314 172.126 448.011 181.609 442.136 185.853C431.652 193.425 422.034 201.882 412.216 210.259L403.908 217.878C403.144 218.615 401.96 219.447 401.421 220.343L427.12 203.171L446.562 191.848C451.505 189.168 461.767 183.09 467.381 182.471ZM459.465 215.541C461.494 210.617 462.854 205.66 464.127 200.497L463.482 200.62C460.259 203.394 456.099 205.368 452.459 207.573C428.455 222.118 408.407 241.614 386.914 259.476L386.625 259.678C387.713 259.565 394.136 254.253 395.549 253.253L420.034 236.711C426.661 232.302 452.292 213.715 459.465 215.541ZM43.3415 272.057C45.7433 276.455 55.3509 289.826 58.7959 293.779C60.7943 291.479 64.1202 289.772 66.5163 287.8L86.2503 271.438C89.4235 268.644 92.5323 265.967 95.3916 262.839L76.6252 274.242C73.1387 276.113 56.544 285.239 53.4453 283.983C51.5134 283.199 50.2145 280.317 49.3821 278.496C51.216 276.225 53.6997 274.363 55.9281 272.486L69.6888 261.686C74.5273 258.24 79.7399 255.077 84.0623 250.969L54.2677 266.708C50.9423 268.638 47.3706 271.073 43.6008 271.997L43.3415 272.057ZM283.218 91.8257L283.105 92.2371C282.718 93.5006 279.751 95.7273 282.376 95.6875L282.471 96.1255C283.637 95.701 285.362 93.8514 286.427 93.0457L293.553 88.002C308.186 78.3404 322.327 72.4074 339.072 67.6252L362.284 61.6473C363.672 61.3623 364.997 61.3234 366.318 60.6152C334.201 57.9672 308.273 70.1726 283.963 91.125L283.218 91.8257ZM463.571 133.026L463.43 133.374C461.771 137.394 457.449 140.342 454.452 143.356L405.786 190.371L401.267 196.129C403.089 194.465 404.667 192.42 406.336 190.599L414.628 182.278C424.225 173.413 453.979 152.187 467.206 148.157L463.571 133.026ZM226.253 342.129L147.25 391.05L151.338 394.663C154.012 392.654 156.905 390.984 159.649 389.074L218.581 349.645C221.502 347.582 224.581 345.54 227.3 343.219C227.462 342.796 227.557 342.502 227.898 342.184L228.127 341.375C227.604 341.83 226.907 341.945 226.253 342.129ZM93.0418 335.069L100.384 343.373C102.654 340.128 106.077 337.934 109.241 335.646L127.263 323.1C130.836 320.346 134.162 317.186 137.605 314.261L150.125 303.633C149.422 303.557 149.176 304.035 148.642 304.464L135.527 313.849C131.296 316.535 126.469 318.014 122.026 320.307L96.5543 333.997C95.4946 334.522 94.4793 334.891 93.2999 335.04L93.0418 335.069ZM32.6052 253.161C33.7858 255.744 35.0914 258.736 36.8668 260.973C38.963 258.971 41.6703 257.845 44.1047 256.309L54.3812 249.581C66.9749 241.52 84.4688 230.345 95.6891 220.425L95.4935 220.122C92.351 221.997 89.56 224.422 86.3976 226.306C73.1732 234.181 59.0684 241.087 45.0861 247.514C40.9706 249.406 36.8862 251.702 32.6052 253.161ZM15.1397 194.416L15.7811 200.75L54.881 172.731C55.6004 172.21 56.3907 171.747 56.8928 171.005L15.1397 194.416ZM19.6421 220.788L21.5479 227.016C27.6425 221.432 54.4273 203.467 55.3223 200L22.5293 220.062C21.5909 220.587 21.0429 220.753 19.9473 220.784L19.6421 220.788ZM48.1604 219.287L31.8552 232.171C29.8192 233.677 27.5727 235.755 25.1857 236.611L27.2822 241.349C29.8707 237.845 45.9423 221.73 48.5537 219.987L48.1604 219.287ZM242.685 331.573L231.009 338.884C229.455 339.89 227.634 340.894 226.253 342.129C226.907 341.945 227.604 341.83 228.127 341.375L227.898 342.184C227.557 342.502 227.462 342.796 227.3 343.219L242.872 332.054L242.685 331.573Z" fill="#FFA200"/>
<path d="M283.218 91.8257L283.105 92.2371C282.718 93.5006 279.751 95.7273 282.376 95.6875L282.471 96.1255L270.938 105.374L270.257 104.883C269.356 105.453 268.652 106.255 267.999 107.09L267.602 106.902C272.073 101.476 277.669 96.1441 283.218 91.8257Z" fill="#FFA200"/>
</svg>
