<svg width="512" height="512" viewBox="0 0 512 512" fill="none" xmlns="http://www.w3.org/2000/svg">
<path d="M253.92 116.373L254.091 116.537C261.015 123.738 262.793 137.626 255.053 144.957C248.625 148.901 247.368 125.811 253.92 116.373Z" fill="#FFA200" fill-opacity="0.6"/>
<path d="M420.135 265.125C421.245 264.977 421.642 265.385 421.643 266.528C421.651 279.619 418.815 287.111 434.186 290.368L434.628 290.447C445.365 292.426 456.032 289.642 466.75 289.772C469.501 292.176 460.824 293.937 459.631 294.277C448.754 296.882 411.33 303.396 414.048 282.5C414.54 278.718 416.199 267 420.135 265.125Z" fill="#FFA200" fill-opacity="0.6"/>
<path d="M321.613 203.909L326.363 203.791C338.841 204.443 329.532 213.057 320.321 214.605C324.143 216.39 328.501 216.607 332.01 218.459C337.459 221.334 339.259 234.96 332.899 236.379C330.673 235.744 328.348 231.877 326.946 230.113C322.491 224.462 317.814 220.699 311.509 217.319C308.583 215.75 295.4 210.09 294.451 207.875L294.591 207.678C295.647 206.569 299.517 206.315 301.055 206.102L321.613 203.909Z" fill="#FFA200" fill-opacity="0.6"/>
<path d="M411.172 284.8C414.851 284.953 412.722 289.427 411.419 291.063C408.588 294.615 404.856 294.957 400.672 295.371C409.632 299.495 416.562 304.806 418.736 315.263C420.086 321.76 418.402 309.621 418.608 308.375L419.125 308.245C427.654 310.674 428.679 329.513 423.806 337.141C421.297 341.068 420.347 336.834 419.388 334.313L415.368 322.918C410.414 310.515 401.509 301.816 388.985 297.064C384.573 295.389 379.903 294.305 375.578 292.463L411.172 284.8Z" fill="#FFA200" fill-opacity="0.6"/>
<path d="M337.149 179.875L337.86 179.781C339.915 181.624 340.075 186.255 340.496 188.922C343.536 208.216 346.73 210.038 366.094 209.959L377.062 209.826C378.522 209.776 381.439 209.283 382.625 209.991L382.7 210.5C379.709 215.234 356.56 217.614 351.427 217.217L349.079 223.067C347.409 226.662 341.414 242.601 338.083 244.092C335.154 245.402 336.173 235.142 338.872 227.098C340.549 222.104 341.922 218.671 345.712 214.843C342.235 213.217 337.443 211.262 334.762 208.452C330.91 204.414 333.941 183.027 337.149 179.875Z" fill="#FFA200" fill-opacity="0.6"/>
<path d="M242.394 74.6047C253.44 73.2791 235.746 83.8617 234.599 84.5473C227.596 88.7327 220.762 92.8029 213.174 95.8591C216.366 96.006 219.032 96.9098 221.919 98.2093C234.929 104.065 241.074 111.92 241.24 126.056C241.35 135.396 238.355 132.708 234.965 127.305C227.977 115.686 221.112 106.015 207.852 100.822C202.84 98.8589 193.506 97.8677 203.275 92.9654C206.234 91.4807 209.396 90.3855 212.327 88.863L231.211 78.7639C234.702 77.0887 238.578 75.345 242.394 74.6047Z" fill="#FFA200" fill-opacity="0.6"/>
<path d="M254.057 45.875C255.002 45.9271 254.993 47.3407 255.176 48.0691L256.24 52.25C261.07 72.5135 262.488 72.2449 272.959 89.25L275.883 94.2048C277.343 96.8856 277.117 96.2201 280.284 96.1826L312.222 94.832C313.23 94.8019 314.882 94.5264 315.683 95.0549L315.685 95.875C311.791 100.719 295.187 102.16 289.27 103.313C282.887 104.084 276.225 104.944 269.957 106.371C262.671 108.029 252.501 113.52 246.002 107.375C244.533 102.981 255.07 102.271 257.625 101.5C259.571 100.912 261.363 100.048 263.173 99.1355L256.148 81.783C251.882 71.5657 245.869 55.8253 254.057 45.875Z" fill="#FFA200" fill-opacity="0.6"/>
<path d="M416.361 465.446C413.447 467.015 409.797 468 406.661 469.123C383.698 477.351 359.403 481.446 335.25 484.25C298.71 488.493 277.885 488.39 241.527 479.678L227.125 475.558C214.812 471.899 202.871 466.95 191.25 461.507L172.276 451.944L151.111 438.7C134.757 427.919 108.798 408.024 99.4355 390.563L101.321 387.731C103.539 389.651 105.446 392.116 107.461 394.252L119.535 406.515C127.258 413.975 135.737 420.049 144.146 426.646C148.27 430.469 153.681 433.458 158.486 436.356L172.781 444.705C193.554 456.872 217.864 468.096 241.281 473.729C249.449 475.694 257.685 476.677 265.961 478.004L281.606 480.319C296.181 482.208 310.628 480.773 325.176 479.006C327.792 478.993 330.411 478.593 333.012 478.322L347.112 476.733C360.973 475.065 375.104 473.5 388.773 470.648L405.157 466.882C408.444 466.084 412.251 464.695 415.625 464.621L416.361 465.446Z" fill="#FFA200" fill-opacity="0.6"/>
<path d="M165.509 15.8253C160.265 17.7397 155.481 20.4256 150.657 23.1857L138.653 30.1853C61.957 76.8286 21.7712 148.171 16.4166 237.625L16.3949 269.681L19.1977 294.917C32.2692 381.022 81.7839 447.58 161.331 484.244L217.368 504.324C209.185 503.71 200.879 501.74 192.988 499.569C143.011 485.821 99.2273 459.821 65.4529 420.612L56.9909 409.75C20.9876 361.27 2.16664 292.828 6.64536 232.479L8.29565 217.971C16.1718 152.413 42.3882 95.6297 92.8789 52.3751C102.423 44.1993 158.075 2.73881 167.783 8.43599L168.152 8.64734C171.441 10.5895 174.846 14.4476 175.766 18.1975C177.576 25.5789 170.877 31.5246 166.753 36.8352C147.297 61.8937 134.66 91.7262 130.039 123.125C128.163 135.87 128.412 148.962 128.409 161.807L128.552 182.743C128.945 191.887 130.036 201.046 131.163 210.125C135.878 248.129 143.619 281.35 165.737 314.034C182.368 338.61 204.136 359.298 228.363 376.252L247.054 388.433C303.542 421.461 371.318 431.48 435.265 418.461L457.494 412.77C465.282 410.583 474.215 408.851 480.97 404.234C486.14 400.7 493.073 394.917 497.734 402.439C509.757 421.844 468.006 452.114 455.25 460.526L436.674 472.061C400.665 492.565 353.941 509.784 312.649 509.867L303.475 509.868C301.283 509.862 299.016 509.982 296.875 509.452C293.824 504.604 315.836 505.586 317.681 505.458C346.117 503.487 372.799 495.158 399 484.261L419.094 475.35L438.307 464.819C454.396 455.747 469.725 446.152 482.185 432.301C483.747 431.078 485.257 428.674 486.497 427.089C489.679 422.97 493.487 416.814 493.244 411.375C492.948 404.773 487.169 410.262 484.733 412.057C467.581 424.697 418.47 433.67 398.096 434.875L379.266 435.247C372.434 435.257 365.563 435.363 358.744 434.902C316.012 432.015 269.338 416.128 233.844 391.434L208.592 372.953C200.822 366.69 193.596 359.872 186.582 352.783C139.975 305.676 127.767 257.282 122.461 194.558L121.047 162.872C121.027 140.623 123.597 123.877 128.93 101.938C135.06 76.7173 142.123 59.5453 158.057 39.2271C161.323 35.0621 175.646 20.678 167.217 15.9771C166.426 15.5359 166.389 15.5675 165.509 15.8253Z" fill="#FFA200" fill-opacity="0.6"/>
<path d="M165.509 15.8251C166.389 15.5673 166.426 15.5357 167.217 15.9769C175.646 20.6778 161.323 35.0619 158.057 39.2269C142.123 59.5451 135.06 76.7171 128.93 101.938C123.597 123.877 121.027 140.623 121.047 162.872L122.461 194.558C127.767 257.282 139.975 305.676 186.582 352.783C193.596 359.872 200.822 366.69 208.592 372.953L233.844 391.434C269.338 416.128 316.012 432.015 358.744 434.902C365.563 435.363 372.434 435.257 379.266 435.247L398.096 434.875C418.47 433.67 467.581 424.697 484.733 412.057C487.169 410.262 492.948 404.773 493.244 411.375C493.487 416.814 489.679 422.97 486.497 427.089C485.257 428.674 483.747 431.078 482.185 432.301C482.044 431.528 481.406 430.782 480.966 430.134C472.914 438.349 464.407 444.6 454.608 450.527C448.485 454.231 423.509 466.533 416.361 465.446L415.625 464.621C412.251 464.695 408.444 466.084 405.157 466.882L388.773 470.648C375.104 473.5 360.973 475.065 347.112 476.733L333.012 478.322C330.411 478.593 327.792 478.993 325.176 479.006C310.628 480.773 296.181 482.208 281.606 480.319L265.961 478.004C257.685 476.677 249.449 475.694 241.281 473.729C217.864 468.096 193.554 456.872 172.781 444.705L158.486 436.356C153.681 433.458 148.27 430.469 144.146 426.646C142.204 420.982 144.629 421.069 150.349 419.266C147.541 417.205 145.163 415.625 143.573 412.393C145.232 406.481 148.802 402.92 153.155 398.827C152.8 397.316 151.133 395.407 150.21 394.15C145.793 396.78 144.237 396.257 139.336 396.794C134.048 397.374 134.048 399.811 128.053 394.93C134.088 385.195 144.747 380.622 151.292 372.862L134.801 382.576C130.135 384.988 111.027 386.124 107.625 379.741C107.9 374.944 120.611 368.69 124.5 366.471L132.628 361.518C144.272 353.917 155.944 344.32 165.042 333.834C160.793 335.656 157.527 340.435 153.624 342.982C147.609 346.907 140.825 349.767 134.482 353.131C124.497 358.427 114.876 365.019 103.301 366.222C98.8687 366.682 80.6009 367.112 94.4091 360.906L102.782 357.178C110.082 353.84 134.159 339.53 135.746 335.25L135.375 334.931C133.07 334.921 130.62 336.172 128.521 337.039L111.424 344.742C107.289 346.449 95.5737 350.054 91.3752 347.238L91.319 346.763C93.0736 344.131 97.1301 342.337 99.8258 340.742L113.125 332.668C119.009 328.68 124.523 323.926 128.935 318.345C117.457 321.826 83.8184 345.072 75.7225 334C75.9224 332.659 77.4627 332.198 78.5985 331.68L93.0436 325.215C103.616 319.905 122.105 308.689 127.991 298.011C117.974 302.27 110.48 306.979 99.2298 310.579C90.328 313.427 84.5747 315.291 76.672 308.821C78.5006 303.464 84.1252 302.817 88.7233 300.59C98.9298 295.644 106.808 291.115 114.85 283.24C109.081 286.19 103.316 288.523 97.0529 290.215L88.2371 292.183C85.1587 292.921 81.5105 293.087 78.3518 292.898C72.9596 292.576 74.6201 288.658 77.1984 286.687C79.4547 284.962 83.1722 284.121 85.8476 283.05C96.1501 278.926 105.463 273.477 112.2 264.472C111.628 263.925 108.116 266.714 96.8427 270.373C84.18 274.483 70.9925 275.527 57.7378 274.925C55.85 269.868 58.8596 269.963 63.1708 268.843L79.9895 264.43C93.1634 260.68 100.51 255.612 111.167 246.798C114.868 243.737 118.762 241.05 121.872 237.353C119.218 238.591 116.792 240.269 114.149 241.527L99.3549 247.702C90.0051 251.354 79.8557 255.416 69.6535 255.372C64.3968 255.35 58.6374 252.02 65.7693 248.107L75.3554 243.681C83.51 239.839 94.7966 232.67 99.8852 224.813C100.859 223.309 101.404 221.543 102.258 219.971C102.864 218.856 104.227 217.727 104.623 216.625L103.889 216.908C99.6166 222.304 70.8245 238.597 70.5203 225.569C70.3788 219.51 77.2258 219.963 81.4348 218.35C85.2623 216.883 88.8848 214.518 91.722 211.572L83.1832 210.829C80.883 210.644 78.3273 210.681 76.1325 209.902C74.5388 209.336 70.7583 207.046 72.9424 205.125C74.7643 203.522 78.6659 202.891 80.9607 202.111C83.9405 201.098 97.8284 194.605 99.9916 192.173C101.185 190.83 101.561 188.351 102.495 186.75C104.623 183.103 107.307 179.815 109.401 176.155C107.279 177.652 105.82 179.842 103.753 181.429C97.9564 185.88 89.5116 188.108 82.4871 189.774C79.9514 190.376 64.4797 193.592 63.0625 192.721L62.9861 192.026C62.7394 186.469 75.072 184.069 79.2591 182.066C89.6909 177.076 95.4475 167.462 102.775 159.073C100.716 160.045 98.8709 161.768 96.839 162.901C92.0636 165.563 80.6837 170.559 74.9809 170.88C71.7589 171.061 68.3029 168.581 71.3294 165.442C76.6303 159.945 86.8617 157.495 93.3205 152.615C90.1677 152.818 86.1749 154.219 83.1323 153.342L82.8752 153.262C81.7421 152.917 80.7008 152.643 79.9976 151.625C80.5728 149.212 93.9658 142.994 96.5002 141.7C100.243 139.789 103.473 137.263 106.209 134.066C101.875 134.19 83.6472 135.977 96.2073 129.426L110.384 121.069C103.768 118.405 95.189 120.282 104.611 113.545C108.601 110.692 112.565 107.751 115.314 103.612L113.038 102.68C105.829 99.5972 108.596 99.4894 113.648 95.766C116.431 93.7145 118.707 91.5138 120.743 88.7198C105.399 82.8225 122.62 83.7424 126.888 75.5569C120.829 70.4193 126.204 71.0674 129.445 67.6886C130.411 66.682 130.9 65.3409 131.741 64.2499C134.381 60.826 137.564 57.7545 139.894 54.1175L136.838 51.8475C138.46 48.0699 141.673 45.8223 144.431 42.8875L161.228 22.4387C161.85 21.6066 166.041 16.4007 166.125 16.1414L165.509 15.8251ZM172.781 444.705C193.554 456.872 217.864 468.096 241.281 473.729C249.449 475.694 257.685 476.677 265.961 478.004L281.606 480.319C296.181 482.208 310.628 480.773 325.176 479.006C326.376 478.639 327.658 478.301 328.778 477.724L329.041 477.585C331.737 476.193 333.629 473.259 335.343 470.841L338.974 465.557L325.941 472.059C318.539 475.569 306.435 479.388 298.298 476.49C301.03 468.877 319.518 458.525 327.057 452.241C319.922 454.251 311.944 459.693 305.457 463.245C296.498 468.15 286.33 471.489 276.065 471.756C272.34 471.853 259.778 472.944 261.579 466.209L261.707 465.75C262.746 461.92 264.09 460.185 266.886 457.558C262.857 458.62 258.898 458.748 254.852 459.521C248.194 460.793 238.158 466.907 231.763 463.386C225.402 459.885 237.931 455.971 240.055 455.013C245.949 452.354 253.114 447.749 257.082 442.798C245.207 446.229 243.801 455.367 230.585 453.421C229.246 451.344 231.095 451.176 232.125 449.855C222.654 450.883 212.67 457.346 203.244 455.515C188.292 452.612 215.061 442.086 217.824 440.64C221.124 438.912 224.169 436.708 227.572 435.186C230.035 434.085 238.344 431.921 239.469 430C238.499 429.454 229.28 432.722 227.722 433.038C220.062 434.589 216.166 436.073 208.862 438.16C204.766 439.33 200.661 439.722 196.52 440.587L189.423 441.917C188.043 442.169 186.118 442.758 184.727 442.476C178.105 441.138 178.867 442.454 173.237 444.54L172.781 444.705ZM153.834 391.101C152.681 392.22 151.594 393.313 150.21 394.15C151.133 395.407 152.8 397.316 153.155 398.827C154.548 398.003 156.464 397.704 158.022 397.235C158.915 397.034 159.183 396.081 159.533 395.283L160.254 393.788C160.198 393.261 160.088 392.995 159.875 392.521L155.479 391.328L153.834 391.101ZM284.846 456.514C282.236 457.802 279.055 459.826 277.125 462.026L280.689 461.356C283.803 460.61 286.043 459.785 288.275 457.375C287.763 456.215 285.939 456.453 284.846 456.514ZM160.254 393.788L159.533 395.283C159.183 396.081 158.915 397.034 158.022 397.235L159.08 398.102L160.182 397.495C161.14 396.236 163.271 395.862 164.735 395.26C170.335 391.964 162.384 394.191 160.53 393.871L160.254 393.788ZM156.921 385.283C157.559 386.345 158.334 386.048 159.325 386.57L163.354 383.258C161.096 383.731 159.059 384.425 156.921 385.283Z" fill="#FFA200"/>
<path d="M159.08 398.102L160.182 397.495C161.451 397.775 162.679 397.883 163.97 397.968L161.37 400.461L159.08 398.102Z" fill="#FFA200"/>
<path d="M154.267 387.505L155 387.157C155.837 387.57 156.54 388.167 157.403 388.578L155.479 391.328L153.834 391.101L153.95 390.881C154.358 390.033 155.265 388.381 154.978 387.501L154.267 387.505Z" fill="#FFA200"/>
<path d="M164.735 395.26C165.65 396.336 166.616 395.904 167.517 396.75C167.063 397.4 164.865 397.616 163.97 397.968C162.679 397.883 161.451 397.775 160.182 397.495C161.14 396.236 163.271 395.862 164.735 395.26Z" fill="#FFA200"/>
<path d="M248.205 433.125L249.012 433.375C246.428 435.544 243.747 437.332 240.625 438.638L240.013 438.258C242.506 436.298 245.287 434.395 248.205 433.125Z" fill="#FFA200"/>
<path d="M480.966 430.134C482.437 427.955 483.82 426.011 486.497 427.089C485.257 428.674 483.747 431.078 482.185 432.301C482.044 431.528 481.406 430.782 480.966 430.134Z" fill="#FFA200"/>
<path d="M171.938 423.375C173.49 423.068 174.56 424.179 175.705 425.133C174.363 426.395 173.078 427.617 171.375 428.387C164.974 429.262 168.853 425.243 171.938 423.375Z" fill="#FFA200"/>
<path d="M154.267 387.505C152.673 388.363 141.541 392.943 140.125 392.654L140.071 392.125C144.089 388.619 151.715 386.51 156.921 385.283C157.559 386.345 158.334 386.048 159.325 386.57L157.403 388.578C156.54 388.167 155.837 387.57 155 387.157L154.267 387.505Z" fill="#FFA200"/>
<path d="M202.557 404.875L203.151 404.846C202.135 406.577 184.449 418.6 182.775 419.375C182.505 419.406 182.247 419.386 181.976 419.375L182.059 419.128C184.77 412.96 196.704 407.152 202.557 404.875Z" fill="#FFA200"/>
<path d="M233.306 407.375C236.92 406.872 230.593 412.264 223.044 417.363C212.383 424.564 199.377 432.457 186.125 433.252C185.771 433.22 185.512 433.149 185.176 433.045L185.214 432.728C187.523 430.553 190.459 429.253 193.306 427.931L224.023 412.237C227.032 410.552 230.038 408.497 233.306 407.375Z" fill="#FFA200"/>
</svg>
