<svg width="512" height="512" viewBox="0 0 512 512" fill="none" xmlns="http://www.w3.org/2000/svg">
<path d="M387.167 4.60202C405.024 3.52194 412.932 22.6455 416.881 37.0561L417.58 37.1679C421.61 37.8402 425.713 39.2879 429.484 40.8453C469.744 57.4725 471.149 99.8632 470.316 137.346C470.261 139.849 469.736 142.274 469.693 144.774L469.713 198.57C469.771 200.583 470.194 202.511 470.286 204.5L470.445 214.25C470.49 215.534 470.738 216.801 470.788 218.086L472.467 267.695L477.366 369.016L477.463 384.446C477.515 436.868 465.596 467.059 412.083 483.6C386.786 491.419 360.429 494.104 334.186 496.836L205.206 507.869C199.853 508.391 194.495 509.317 189.125 509.634L123.571 509.847C119.301 509.831 114.609 509.928 110.416 509.089L94.2581 505.875C81.0541 502.471 69.4528 494.297 62.5208 482.515C50.9211 459.936 49.3499 423.847 47.2781 398.849L38.7112 270.625L36.1605 218.536L36.7114 151.961L35.5635 111.317C35.567 82.6986 42.3982 48.5369 76.4919 45.2394L81.8776 44.6862C83.1766 44.5509 82.9166 44.7339 83.3627 43.5136L85.2645 38.5807C96.0575 12.6631 113.876 2.92563 134.863 23.9949C140.762 29.9161 144.267 35.2241 149.286 41.2302L178.575 40.8509L181.471 34.1445C196.327 1.8871 225.693 -9.56699 242.175 28.6723C243.296 31.2735 243.981 33.8975 245.031 36.4893L265.455 36.2974C266.172 35.4433 266.279 34.4172 266.663 33.3975L268.503 29.0013C276.655 11.4318 293.588 -3.20505 312.235 9.55904C319.272 14.3762 323.514 22.6846 326.626 30.3623C327.265 31.9394 327.397 33.6674 328.15 35.1716L355.298 34.658C360.658 20.5252 370.623 5.97694 387.167 4.60202ZM214.414 16.2674C205.81 19.6185 196.193 28.8092 192.451 37.5C192.03 38.4774 191.847 39.2637 191.192 40.1387C191.644 40.4653 209.339 40.2089 211.563 40.1147L212.006 40.0222C213.76 39.6821 215.836 39.7688 217.625 39.7448L227.733 39.6674C229.895 39.6515 232.191 39.7472 234.327 39.3941L233.69 37.356C231.642 28.922 223.954 15.8725 214.414 16.2674ZM300.376 17.3266C292.032 19.6716 283.472 26.4415 279.294 34.0976C278.856 34.9018 278.601 35.6907 278.073 36.4573L294.933 36.2507L316.909 35.7123C316.276 34.7114 316.107 33.3386 315.636 32.236C313.093 26.2804 308.217 16.5067 300.376 17.3266ZM114.875 24.7698C103.26 27.6645 101.244 34.79 95.5157 42.4664L118.222 42.2272L137.217 41.9093C131.794 37.2384 122.696 23.8684 114.875 24.7698ZM391.095 15.7508C382.953 17.9027 374.934 24.5386 370.665 31.7623C370.092 32.7329 369.77 33.5957 368.85 34.3024L383.739 34.1347L405.156 33.785C404.32 32.8458 404.14 31.2016 403.572 30.0554C401.021 24.9164 396.902 17.591 391.095 15.7508ZM210.986 67.375C207.585 68.4652 202.829 69.6906 201.132 73.2407C195.949 84.0851 219.88 96.4148 233.064 80.0421C235.974 76.1558 237.215 72.4488 238.053 67.6995C233.723 69.1577 229.367 71.1891 225.583 73.7517C223.159 75.393 220.883 77.5498 218.172 78.6879C211.916 81.3137 208.14 73.7792 210.987 68.625L211.813 67.375C211.419 67.239 211.376 67.2935 210.986 67.375Z" fill="#060505"/>
<path d="M428.654 451.292C429.852 451.723 431.062 451.737 432.195 451.846L428.738 455.131C428.752 453.973 428.872 452.7 428.706 451.557L428.654 451.292Z" fill="#060505"/>
<path d="M460.226 397.957C460.238 398.793 460.084 399.963 460.509 400.665C463.79 400.732 466.996 400.366 470.25 400.897L470.48 401.398C469.714 402.034 459.905 401.627 458.114 401.616L460.195 401.153C459.885 400.055 460.081 399.059 460.226 397.957Z" fill="#060505"/>
<path d="M428.762 448.189C431.923 447.829 436.96 445.451 438.671 446.385C436.751 448.406 434.646 450.476 432.195 451.846C431.062 451.737 429.852 451.723 428.79 451.292L428.762 448.189Z" fill="#060505"/>
<path d="M428.762 448.189L427.72 428.666L455.333 425.678C453.623 427.275 452.398 429.319 451.071 431.23L438.671 446.385C436.96 445.451 431.923 447.829 428.762 448.189Z" fill="#FFECCC"/>
<path d="M324.251 63.625L324.807 63.7617C324.283 75.7217 310.975 85.1487 299.4 81.8967L298.25 81.5594C294.449 80.3351 291.491 77.8946 289.665 74.3475C288.293 69.6478 289.307 66.7338 293.772 64.5728C295.606 67.4843 297.63 70.6109 300.828 72.1878C305.057 74.2733 307.302 70.3858 310.741 68.7067C312.69 67.755 314.821 67.0919 316.855 66.3468L324.251 63.625Z" fill="#FFECCC"/>
<path d="M409.114 59.875L409.36 60.0467C409.311 62.3252 409.418 64.9692 408.769 67.1752L408.025 69.5C403.097 83.0508 380.424 86.59 373.865 72.0372C372.604 67.0702 374.338 62.3838 380.557 63.3439C380.866 66.5675 382.828 70.7772 385.875 72.0762C390.946 74.2384 393.67 67.1691 397.058 65.0772C400.614 62.8823 405.207 61.3669 409.114 59.875Z" fill="#FFECCC"/>
<path d="M145.212 67.5596C144.55 71.5496 144.001 75.2623 142.272 78.9609C135.202 94.0811 112.787 96.3315 106.943 79.8579C105.512 74.0166 110.232 70.9975 115.117 69.519C116.192 72.0811 116.214 74.8568 117.595 77.375C122.936 87.1112 129.342 76.0706 132.942 73.5874C136.635 71.0407 141.364 69.9835 145.212 67.5596Z" fill="#FFECCC"/>
<path d="M401.753 401.784C406.277 401.843 411.281 403.664 415.649 404.845C428.301 408.266 445.118 412.163 458.208 408.466L458.218 408.599C452.306 414.689 448.165 417.306 439.641 419.138L428.511 421.463C422.9 422.883 420.077 423.96 419.746 430.047L418.462 457.085C417.998 460.854 417.513 462.106 414.565 464.273L410.757 467.298C410.799 453.618 409.225 439.57 405.018 426.5L400.311 411.761C399.065 407.699 396.914 403.954 401.753 401.784Z" fill="#FFECCC"/>
<path d="M394.069 46.805L407.605 46.78C408.15 51.0312 407.251 50.1405 403.303 51.0749L392.591 53.5246C385.633 55.2089 376.252 56.6577 372.312 63.4054C363.695 78.1643 387.354 93.6198 406.339 81.4731C419.154 73.274 418.882 61.1703 418.925 47.9931C420.126 48.5781 421.392 48.6006 422.653 48.9778C447.03 56.268 457.067 81.3924 459.206 104.935C459.582 109.076 459.964 137.265 459.145 138.622L48.7686 154.047C47.8855 145.042 47.8569 135.192 48.4772 126.149L50.3591 106.281C51.4781 93.6968 51.7239 80.0101 57.245 68.3918C61.7019 60.0333 69.4099 57.7149 78.438 56.8253L130.5 53.6761C134.871 53.342 141.149 50.9961 141.343 56.2558C140.266 57.8104 128.703 60.0894 126.181 60.7356L119.064 62.7646C94.7816 70.4314 102.408 92.2936 120 95.99L120.493 96.0894C137.677 99.675 150.767 84.2386 152.338 68.4725C152.804 63.7918 152.517 59.029 152.367 54.3383L236.267 51.4892L236.075 54.8388C225.264 59.5956 200.724 60.0825 197.807 73.063C195.795 82.015 203.87 90.0829 212.023 91.9628L212.5 92.0699C221.414 94.1298 230.741 90.8149 237.058 84.3072C245.581 75.5276 247.81 62.2848 247.662 50.5399C249.55 50.2144 251.904 50.4585 253.848 50.4529L268.397 50.3876C270.337 50.3467 272.202 50.0575 274.125 49.9486L317.935 48.7322C318.918 48.7355 325.922 48.8911 321.625 51.2474C312.426 56.291 296.711 54.2386 289.586 62.654C275.28 79.5513 308.069 100.135 327.446 76.1496C333.95 68.0986 334.029 58.1715 332.952 48.3655C337.031 47.7521 341.364 48.0157 345.485 48.0064L364.987 47.9593C368.689 47.9475 372.219 47.569 375.875 47.4061L394.069 46.805Z" fill="#FFA200"/>
<path d="M458.114 401.471C448.877 402.424 439.267 401.832 430.156 400.168L417.685 397.388C412.797 396.182 407.161 394.031 402.102 394.83C387.489 397.136 393.615 413.052 395.58 422L400.597 447.001C401.308 451.232 403.025 467.407 400.788 470.545C397.536 472.194 393.931 472.843 390.356 473.407L373.6 475.299C363.226 476.379 353.017 478.052 342.57 478.624C323.427 479.672 304.203 479.444 285.125 481.503C273.167 482.794 261.574 485.694 249.836 488.185L229.273 491.847C224.628 492.57 219.889 493.371 215.199 493.657L171.789 494.232L118.336 493.264C108.338 492.76 103.55 492.802 94.1446 488.407C59.8699 472.393 61.0997 451.77 57.673 418.625L53.1771 365L47.8161 270.225L47.6772 255.175C47.6181 252.652 47.0877 250.204 47.04 247.683L47.074 205.973C47.1319 203.648 47.6663 201.391 47.6976 199.08L47.7618 173.551C47.7651 168.2 47.5144 162.755 48.2498 157.444C54.8841 156.998 61.6828 157.746 68.2965 158.179L100.5 160.276L150.916 160.071C152.133 159.982 153.339 159.712 154.552 159.673L327.061 147.609L415.269 143.643C424.598 143.5 433.841 142.735 443.153 142.728L458.522 142.926L460.17 397.957C460.081 399.059 459.885 400.055 460.195 401.153L458.114 401.471Z" fill="#FFECCC"/>
<path d="M355.888 405.067C359.015 405.367 361.595 407.973 358.928 410.904C357.15 412.857 353.953 413.945 351.519 414.814L338.772 418.793C312.53 426.355 285.573 430.347 258.442 432.993L212.251 436.265L158.869 437.451L111.759 440.762C107.443 440.29 105.996 435.639 110.154 433.636C111.726 432.879 114.171 433.12 115.886 433.086L169 430.307L208.305 430.198C210.14 430.147 211.926 429.827 213.75 429.74L233.054 428.923L294.514 421.67C309.173 419.087 323.95 415.947 338.182 411.582L348.386 408.015C350.776 407.05 353.091 405.683 355.617 405.124L355.888 405.067Z" fill="#060505"/>
<path d="M389.363 221.778L390.625 221.744C392.269 222.573 393.407 224.101 393.294 226.025C393.088 229.531 387.904 230.529 385.263 231.132L377.143 232.897C339.473 240.853 300.944 244.219 262.625 247.32L207.382 251.277L162.392 251.224L115.017 248.217C110.263 247.469 108.25 241.94 113.125 240.812C115.495 240.263 119.371 241.084 121.847 241.292L161.875 243.674L209.225 243.662L274.842 238.882L325.875 233.512C347.395 230.817 368.409 227.511 389.363 221.778Z" fill="#060505"/>
<path d="M411.922 314.596C416.323 313.103 419.142 320.062 413.897 321.638C411.667 322.308 409.168 322.541 406.871 322.921L322.25 333.713L238.431 340.221L199.006 341.913C197.167 341.998 195.324 342.35 193.5 342.412L172.114 342.572L135.94 344.396L112.458 344.589C105.118 344.071 107.328 337.614 110.132 337.2C112.859 336.797 115.97 337.06 118.736 337.051L138.576 336.947C140.697 336.871 142.755 336.404 144.863 336.34L159.286 336.189C161.504 336.143 163.679 335.782 165.875 335.696L195.568 335.13L259.587 331.523L317.969 326.847L379.207 319.696L411.922 314.596Z" fill="#060505"/>
</svg>
