<svg width="512" height="512" viewBox="0 0 512 512" fill="none" xmlns="http://www.w3.org/2000/svg">
<path d="M346.244 25.0112L361.375 20.8725C383.421 14.6133 400.922 8.84341 411.995 35.185C413.117 37.8526 418.621 36.5857 420.985 36.7492C429.331 37.3267 437.768 39.6142 446.138 37.5126L447.125 35.2479C447.696 35.66 447.674 36.4763 447.782 37.1614L447.866 37.7511C458.933 44.7455 462.205 65.5583 463.579 77.2354C470.188 77.7194 476.568 80.2689 480.924 85.375L481.972 86.75C490.965 99.1375 488.845 120.185 489.679 134.714L492.749 207.478L492.631 248.246C492.559 251.087 491.958 253.813 491.867 256.625L491.349 283.802L489.506 320.682C487.722 368.569 484.044 391.659 431.359 393.972L367.75 394.502L321.375 396.493L306.249 397.991C304.411 398.173 302.128 398.656 300.308 398.484C297.706 398.833 295.025 398.95 292.513 399.778C297.942 404.235 300.75 404.14 295.886 409.399L289.602 415.782C284.968 420.441 281.002 425.035 274.883 427.751L274.25 428.019C269.112 430.206 264.073 430.738 258.595 431.489L260.678 446.5C261.827 453.726 263.521 459.238 267.778 465.243C270.49 469.068 274.172 472.52 276.221 476.75L276.364 477.041C282.402 489.568 261.111 493.818 252.125 493.297C236.595 492.396 224.084 484.862 220.55 468.751L219.673 463.642C219.403 461.595 219.453 451.349 219.642 448.761C219.853 442.091 221.52 435.199 224.022 429.02C222.66 427.729 220.829 426.742 219.25 425.719C210.527 420.068 208.131 415.786 203.777 406.456C202.936 404.653 202.085 402.234 200.787 400.713C197.905 397.333 165.138 395.768 160.172 395.57L120.907 394.504L98.7507 395.233L75.5293 396.362C65.6706 397.01 51.7418 399.081 42.1249 396.134L40.017 395.567C33.2338 393.384 28.1929 389.642 24.8923 383.191C20.8809 375.676 20.8548 360.664 21.2969 351.625L25.5993 302.715L25.4247 268C25.2176 261.956 24.8332 255.987 24.5955 249.953L23.7472 235.5C22.8036 221.379 20.8459 207.234 20.5609 193.083L20.6237 168.868L21.4892 143.856C21.2321 123.152 11.9332 100.605 36.7992 88.8898C38.3096 88.1782 39.7051 87.5033 41.3531 87.1697L41.2305 71.504C41.2417 61.9508 43.2725 54.3697 51.5904 48.3399C64.7253 38.8183 83.3436 44.4771 97.8709 46.7959L98.5986 42.9372C106.085 0.95986 141.906 16.1987 169.54 29.4626L243.723 67.0814C253.689 72.886 249.549 74.5802 257.784 68.2992L266.676 61.9967C287.051 48.4828 321.609 30.2778 346.244 25.0112Z" fill="#060505"/>
<path d="M244.985 398.23C241.335 394.615 243.839 388.314 247.795 393L247.397 393.894C246.637 395.39 245.659 396.669 244.985 398.23Z" fill="#FFA200"/>
<path d="M247.397 393.894L249.811 393.412C250.874 393.151 252.117 393.527 253.18 393.713C259.57 394.835 249.225 404.133 244.985 398.23C245.659 396.669 246.637 395.39 247.397 393.894Z" fill="#FFA200"/>
<path d="M240.896 433.875C244.422 433.005 243.46 440.194 243.656 442.286C244.156 447.624 245.869 453.529 247.902 458.486L251.528 466.64C249.62 468.065 247.712 469.092 245.561 470.102C239.25 472.628 238.722 469.477 237.473 463.375C236.445 458.351 235.547 436.732 240.896 433.875Z" fill="#FFA200"/>
<path d="M466.515 89.2594L469.449 92.0333C475.754 98.9876 475.279 110.029 475.665 118.772L477.402 155.87C477.495 157.719 477.857 159.548 477.933 161.387L477.97 210.208C477.908 212.191 477.512 214.106 477.417 216.072L476.719 233L472.332 306.324L471.054 322.7C470.128 334.32 469.591 346.911 465.039 357.764C458.95 372.286 449.253 373.229 435.462 374.389L337.952 379.637L296.582 383.539C290.505 384.167 284.208 384.665 278.336 386.455C276.423 387.038 276.846 386.945 276.448 388.93C272.449 408.885 264.584 418.923 243.064 417.795C232.712 417.253 224.119 412.306 218.272 403.722C215.876 400.202 213.909 396.298 211.028 393.138C200.995 382.133 164.104 379.78 149.452 379.348L106.75 379.262C103.933 379.247 101.215 378.762 98.4295 378.692L71.712 378.095C65.1771 377.763 58.5849 377.334 52.1249 376.271C29.8233 372.603 33.7534 360.315 35.3541 342.563L38.5896 310.551C39.7413 300.999 39.723 291.435 39.7342 281.834L39.5488 256.25L37.3074 217.618L37.1984 201.357C37.1669 198.325 36.5661 195.367 36.5429 192.369L36.4182 154.774C36.1655 148.735 35.8819 141.617 35.3201 135.75L34.0669 120.922C33.3208 110.234 32.9855 108.796 41.9171 101.603C41.573 104.894 41.7816 108.37 41.7861 111.689L43.0976 147.144C43.1352 148.507 43.3392 150.124 43.1356 151.464L43.0778 151.809C44.0644 153.269 43.6962 162.322 43.7852 164.577L44.2527 180.48C44.3106 182.117 44.5936 183.735 44.6385 185.375L44.726 203.101C44.7831 205.21 45.1695 207.283 45.2196 209.375L45.2642 288.441C45.2396 299.973 44.2758 311.738 50.2599 322.148C59.9359 338.98 79.7022 342.534 97.3341 345.145L124.29 348.806L185.427 359.754C187.728 360.255 190.081 360.604 192.353 361.219L151.875 361.139C146.8 361.515 128.143 363.216 124.625 367.314L124.69 367.813C125.799 368.402 127.578 368.428 128.837 368.55L155.319 370.323C168.85 371.249 181.446 372.928 194.544 376.789L212.309 382.464C219.146 384.513 226.227 385.956 232.918 388.433C225.309 399.214 231.259 409.911 243.305 412.967L243.75 413.077C257.212 416.512 272.643 405.809 270.348 391.018L270.282 390.625C269.721 387.034 267.798 384.082 265.915 381.053C266.681 380.313 267.843 379.84 268.8 379.375C286.242 370.886 307.244 369.036 326.253 367.134L352.736 364.438L411 362.299C438.235 361.414 457.913 355.469 463.846 327.001C467.288 310.48 467.945 293.198 468.915 276.375L469.326 265.269C469.402 264.007 469.672 262.751 469.722 261.5L469.83 239.285C469.887 237.079 470.331 234.93 470.4 232.75L470.386 152.324C470.33 149.944 469.892 147.619 469.817 145.256L468.399 112C467.902 104.442 467.639 96.7534 466.515 89.2594Z" fill="#FFA200"/>
<path d="M331.301 303.195C339.8 303.031 346.755 302.441 355.569 303.428L390.178 308.378C422.595 313.29 431.799 299.416 431.225 268.965L415.241 46.9909C421.317 47.0006 428.001 46.4853 434 47.4247L435.431 47.6739C445.175 49.4634 447.991 65.2185 449.259 73.0035L452.392 101.589L452.644 114.25C452.749 116.335 453.123 118.393 453.177 120.5L454.365 163.375C454.457 165.763 454.928 168.106 454.969 170.524L454.966 253.757C454.919 255.955 454.452 258.153 454.388 260.375L454.16 273.06C452.756 297.201 449.017 335.337 421.29 342.829C415.439 344.41 409.717 344.454 403.75 344.803L368.25 345.265L328.996 348.081L297.506 352.488C288.575 353.962 279.741 355.461 270.979 357.779L253.972 362.967C250.424 364.174 246.873 365.579 243.264 366.581C235.18 363.445 227.784 358.806 219.573 355.822C209.892 352.303 199.72 350.442 189.741 347.978C174.368 344.181 159.051 339.981 143.404 337.424L99.1545 332.166C75.4412 329.266 62.7806 320.324 61.5696 296.028L61.4258 221.558C61.3541 219.017 60.7719 216.542 60.7366 213.958L60.6515 186.875C60.5988 184.584 60.2255 182.325 60.1921 180.017L59.995 162.02L55.6874 91.5561L55.3267 77.4501C55.2028 73.0384 54.1615 67.5832 55.7685 63.3734C60.5005 50.9772 87.8468 56.1984 96.8174 61.3317L94.1397 90.625L93.3445 119.152L93.3124 168.375L96.4976 216.25C96.6233 217.866 96.8875 219.452 96.9417 221.077L97.0527 252.419C97.0356 257.731 96.4869 263.567 97.4936 268.791C100.887 286.398 114.518 293.464 130.532 295.333L143.875 297.027C155.134 298.687 166.106 301.01 177.095 303.948L177.114 303.94L206.931 315.451C212.167 318.357 217.531 321.113 222.365 324.672C225.077 326.67 227.481 329.245 230.22 331.141L239.565 339.128C246.137 344.33 249.669 346.379 256.289 339.463C258.168 338.056 259.871 336.156 261.605 334.556L273.078 324.446C284.594 315.179 300.704 308.336 315.119 305.475C320.412 304.425 325.707 304.123 330.991 303.249L331.301 303.195Z" fill="#FFA200"/>
<path d="M192.262 293.62C180.513 290.12 168.392 287.459 156.276 285.608L142.988 283.769C113.58 280.329 110.729 276.089 110.667 247.739L110.517 226.504L105.701 167.633L104.844 148.941C103.986 122.93 106.458 97.1642 109.233 71.3395L111.069 53.9608C113.44 30.6449 116.213 24.4395 143.311 32.8943C154.706 36.4496 165.337 42.2558 175.984 47.5655L240.604 81.0239C242.456 81.9483 241.955 102.103 242.358 106.1L248.727 170.211C249.518 183.217 250.233 196.052 249.466 209.116L246.438 246.896L246.255 277.505L247.773 315.18C247.78 316.707 248.138 319.335 247.695 320.745C233.334 308.366 210.203 297.333 192.262 293.62Z" fill="#FFECCC"/>
<path d="M182.429 87.5774C196.052 86.7023 209.754 92.5995 220.052 101.257C223.796 104.405 228.269 109.468 220.625 111.751C218.877 111.584 217.659 110.523 216.274 109.539L210.873 105.818C200.221 99.1016 191.443 95.6268 179.012 95.5007C176.133 91.73 177.874 88.5769 182.429 87.5774Z" fill="#060505"/>
<path d="M171.192 234.328L171.542 234.316C185.09 233.616 199.779 241.129 209.375 250.06C212.119 252.614 219.953 259.546 215.3 263.52C213.828 264.777 212.361 264.874 210.51 264.729L209.875 264.302C207.917 262.957 206.57 260.591 204.805 258.941C196.671 251.339 185.041 244.817 173.881 243.097C171.461 242.724 167.65 243.118 165.613 241.837C161.144 239.027 167.25 234.934 171.192 234.328Z" fill="#060505"/>
<path d="M169.933 150.857C184.137 149.793 207.467 160.669 213.482 173.31C210.094 180.428 207.365 177.508 202.856 174.087C191.459 165.79 178.717 160.121 164.34 161.222C162.503 161.363 158.731 162.724 157.202 162.058C152.135 154.6 164.682 151.239 169.933 150.857Z" fill="#060505"/>
<path d="M257.776 308.186C257.874 306.242 257.622 304.022 257.571 302.042L256.458 257.952C256.484 240.641 258.778 223.615 259.784 206.375C260.558 193.096 259.9 180.295 258.867 167.115L252.964 112.891C252.065 103.703 251.957 94.2878 251.792 85.0547C254.979 86.8961 258.834 86.7607 261.742 84.4662C265.941 81.1535 263.653 81.6554 263.875 79.7323C266.264 79.0375 268.339 77.511 270.393 76.1426L290.829 63.2493C310.292 52.1372 331.41 43.8375 353 37.9319C365.09 34.625 398.658 23.073 402.141 43.4485L410.642 109.255L413.521 148L414.688 209.554C414.777 211.346 415.128 213.095 415.264 214.875L417.571 261.642C417.584 271.858 417.597 292.47 404.23 295.531C397.76 297.013 389.5 294.461 383.25 292.77C365.28 287.91 348.125 281.323 329.112 284.373C309.197 285.729 279.946 294.16 263.961 306.056L259.728 309.375C259.273 309.756 258.639 310.749 258.046 310.5L257.776 308.186Z" fill="#FFECCC"/>
<path d="M332.913 158.605C338.56 158.008 365.447 161.011 366.911 167.647C367.471 170.187 365.178 173.703 362.432 173.601C359.808 173.503 356.571 171.82 354.056 171.022C345.306 168.244 335.682 167.95 326.762 170.03C314.551 173.342 312.356 178.664 303.733 182.814L301.694 181.625C298.238 179.023 300.147 176.415 302.416 173.711C310.071 164.587 321.206 159.645 332.913 158.605Z" fill="#060505"/>
<path d="M334.628 222.103C343.759 221.142 359.758 224.561 367.592 230.254C373.843 234.797 370.342 241.831 364.146 238.856L359.505 236.625C351.453 232.875 341.843 231.203 333.018 232.568L332.589 232.637C325.373 233.97 319.046 236.879 313.368 241.548C311.137 243.382 309.19 245.462 306.581 246.756L305.375 246.29C300.518 244.369 301.647 240.774 304.445 237.527C312.346 228.356 322.595 223.059 334.628 222.103Z" fill="#060505"/>
<path d="M331.713 79.3519C335.655 79.1011 339.952 78.9775 343.875 79.4089C347.975 79.8598 366.189 83.9055 367.785 87.625C368.707 89.7747 366.721 94.1423 364.25 94.1707C363.161 94.1832 361.597 93.5609 360.563 93.2402L354.233 91.3352C342.419 88.0872 329.513 88.6983 318.187 93.3647C312.461 95.7793 307.166 99.1104 302.438 103.138C300.662 104.651 297.852 107.757 295.625 108.341C292.259 109.225 289.725 104.123 293.165 99.9168C303.124 87.7396 316.178 80.957 331.713 79.3519Z" fill="#060505"/>
</svg>
