<svg width="512" height="512" viewBox="0 0 512 512" fill="none" xmlns="http://www.w3.org/2000/svg">
<path d="M91.8859 30.625C96.7853 29.5222 108.183 55.7404 109.166 60.75C108.766 61.7287 108.151 61.8365 107.255 62.2992C102.899 62.9657 102.303 62.83 101.499 58.625C100.25 52.0919 96.6452 45.3994 93.3303 39.7401C91.7716 37.079 88.0158 33.0125 91.8859 30.625Z" fill="#060505"/>
<path d="M150.385 18.014C152.531 17.8971 154.742 20.1918 153.312 22.2543C152.174 23.8972 150.355 25.2374 148.981 26.7001C143.563 32.47 138.491 40.0339 136.062 47.6361C134.886 51.3161 134.539 59.609 129.875 60.7516C128.853 60.8687 127.774 60.7933 127.098 59.892L126.875 59.5213C125.855 57.9158 126.085 56.1135 126.749 54.375C130.311 45.0481 140.476 22.5003 150.385 18.014Z" fill="#060505"/>
<path d="M63.0522 74.394C73.2651 73.8012 81.5851 76.8231 89.3883 83.5977C91.2694 85.2308 95.1293 87.8875 94.7581 90.75C91.7221 94.6297 88.5094 90.2472 86.0613 88.1839C83.3743 85.9193 80.4028 84.0072 77.2323 82.4928L73.5004 81.1704C67.5166 79.254 60.2935 80.6709 54.4584 82.4758L49.8465 84.1045C48.3897 84.6927 45.5554 86.2491 44.0338 85.7934C34.14 82.8306 55.7727 75.7215 57.5004 75.2569C59.3277 74.7656 61.1779 74.599 63.0522 74.394Z" fill="#060505"/>
<path d="M241.386 43.7373C300.364 44.3198 361.194 86.9695 390.716 137.351C402.686 157.778 410.853 179.901 415.818 203L418.185 214.582C418.867 217.832 419.662 221.111 419.935 224.423C435.068 225.564 451.03 223.057 465.938 226.612C486.28 231.462 502.85 248.566 491.119 269.578C485.58 279.501 476.099 284.68 465.472 287.607C465.29 299.949 462.971 312.358 461.751 324.625L455.298 378.126C453.528 391.779 452.068 405.718 449.097 419.171C447.085 428.287 446.481 438.03 443.348 446.854C432.847 476.427 394.859 483.827 367.25 486.552L346.858 488.263L311.187 488.242L273.059 485.77L201.27 480.723L147.587 479.539C110.833 476.793 90.5989 471.567 76.9427 435.576C71.2322 420.526 68.3131 404.506 65.2515 388.75L49.7687 299.015C49.089 294.386 48.0074 289.787 47.5564 285.128C46.2974 284.658 44.5928 284.63 43.2268 284.269C31.455 281.16 19.7077 272.824 17.7087 259.999C12.9653 229.567 43.1537 221.835 67.0313 220.446C71.7698 220.17 76.5416 220.525 81.2703 220.178L81.2492 209.177C81.2332 186.637 92.0274 167.981 101.79 148.407C115.667 120.585 128.299 93.4171 153.036 73.483C179.136 52.451 208.452 43.6891 241.386 43.7373Z" fill="#060505"/>
<path d="M387.552 228.967L458.726 230.972C473.164 232.696 491.395 241.721 485.604 259.054C482.745 267.61 475.087 272.41 467.43 276.249C450.692 284.482 431.934 283.057 413.848 283.01L388.159 282.791C389.801 271.013 391.244 259.734 391.319 247.851C391.622 250.038 392.289 253.199 394.295 254.416L394.746 253.881C396.071 245.666 392.184 235.461 387.552 228.967Z" fill="#FFECCC"/>
<path d="M474.31 244.875C478.632 244.179 481.148 250.362 475.657 251.666C470.234 251.307 469.845 246.69 474.31 244.875Z" fill="#060505"/>
<path d="M398.955 258.375C404.17 257.611 406.136 261.186 402.857 265.558C398.578 268.421 395.995 259.938 398.955 258.375Z" fill="#060505"/>
<path d="M449.921 249.125C453.466 248.422 457.976 252.527 451.811 256.323C446.697 258.535 445.826 250.926 449.921 249.125Z" fill="#060505"/>
<path d="M426.389 254.772L428.25 254.748C429.92 254.946 430.914 256.771 430.601 258.308L430.53 258.625C430.111 260.563 429.111 261.881 427.125 262.454C421.849 262.34 420.575 257.507 426.389 254.772Z" fill="#060505"/>
<path d="M80.4139 225.853L109.921 226.651C131.654 228.057 142.096 231.281 156.234 249.369C162.498 257.384 167.558 265.869 172.355 274.809L121.062 279.457L86.8936 280.331C80.0366 280.328 72.8088 280.789 66.0337 279.673C57.6602 278.293 41.3615 273.537 35.1145 267.693C26.643 259.769 27.5025 243.924 35.1251 235.777C41.4886 228.975 52.3358 227.769 61.0947 226.938L80.4139 225.853Z" fill="#FFECCC"/>
<path d="M149.123 257.291C154.272 257.073 154.513 260.891 150.246 262.424L149.636 262.472C145.678 262.672 144.37 258.655 149.123 257.291Z" fill="#060505"/>
<path d="M94.9836 259.125C99.2178 257.802 103.77 262.377 99.9503 266.144C95.6597 267.744 91.1135 261.647 94.9836 259.125Z" fill="#060505"/>
<path d="M130.355 251.794C139.047 250.619 131.325 261.293 127.875 262.71C119.662 263.147 124.87 254.582 130.355 251.794Z" fill="#060505"/>
<path d="M77.0943 247.24C84.0398 246.9 80.5001 258.205 72.4041 258.493C62.7329 256.065 72.9836 249.004 77.0943 247.24Z" fill="#060505"/>
<path d="M46.4863 247.625C53.1188 248.037 55.5283 260.787 48.9936 263.327L48.4816 263.326C41.5681 263.347 40.5604 249.183 46.4863 247.625Z" fill="#060505"/>
<path d="M142.551 228.305C176.378 237.051 201.447 248.057 225.335 275.668C255.794 310.874 265.755 344.752 311.685 366.35C328.724 374.363 344.269 377.528 360.099 364.72C355.737 376.77 351.239 389.129 344.336 399.977C337.83 409.773 328.618 419.064 317.018 422.442C295.129 428.818 270.254 412.596 257.573 395.687L248.79 383.487C245.376 379.124 242.861 379.575 243.181 374.04C243.792 363.485 234.971 353.342 228.961 345.55L199.62 306.261L185.089 282.863C173.926 262.79 163.664 239.828 142.551 228.305Z" fill="#FFECCC"/>
<path d="M224.022 52.6443C288.529 49.946 350.098 90.4221 382.318 144.923C386.112 151.34 389.222 158.141 392.261 164.938L399.717 182.261C403.798 192.599 407.022 203.291 410.324 213.897L412.452 220.75C412.818 222.073 412.88 223.65 413.5 224.874L413.712 225.27C402.857 225.286 392.114 224.329 381.306 223.416C372.177 222.644 372.429 225.525 372.208 217.652C371.227 182.649 358.985 154.403 337.757 126.473C320.694 104.022 301.18 86.2299 273.31 78.4233C232.607 68.0246 189.44 81.4693 161.455 113.059C136.262 141.498 122.775 178.592 127.321 216.599L127.756 222.825L86.725 220.211C86.6076 201.1 88.0882 189.81 96.4611 172.963L114.636 136.6C121.62 122.461 128.944 107.748 139.331 95.7551C161.942 69.6472 189.865 54.9682 224.022 52.6443Z" fill="#FFA200"/>
<path d="M216.025 223.603L277.837 223.691C279.912 223.76 281.855 224.377 283.893 224.449L298.437 224.68L343.494 227.397L365.015 227.501C373.325 227.542 379.796 225.775 382.644 234.875C383.892 238.86 383.52 243.741 383.526 247.881L383.348 264.786L381.251 285.5C378.892 305.096 374.914 325.104 367.214 343.356C361.173 357.677 352.164 369.696 334.27 367.335L325.145 365.307C271.45 348.69 260.654 304.961 227.33 268.488C211.396 251.049 189.202 236.037 166.403 229.09L157.989 226.611C156.59 226.195 155.523 225.716 154.051 225.482L216.025 223.603Z" fill="#FFECCC"/>
<path d="M238.4 83.1267C242.402 83.1915 246.476 83.136 250.462 83.5437C306.108 89.2359 353.455 141.676 363.947 194.85C365.726 203.867 366.055 212.765 366.1 221.919L259.942 218.401L132.647 221.904C132.264 221.432 132.393 220.054 132.372 219.433L132.308 206.321C132.306 198.175 132.44 190.302 133.629 182.22C141.157 131.035 185.295 84.8736 238.4 83.1267Z" fill="#FFECCC"/>
<path d="M175.007 280.862C175.412 280.771 175.737 280.819 176.147 280.852L206.021 325.926C219.336 344.225 238.303 362.771 242.484 385.352C249.715 424.396 300.214 444.484 332.749 421.355C345.584 412.231 352.998 398.905 358.886 384.646L364.323 370.414C365.684 366.261 366.427 361.92 367.874 357.804C370.566 350.147 374.503 342.981 377.125 335.235C382.061 320.654 384.044 305.519 386.579 290.413C393.343 291.409 400.174 292.239 407.008 292.572L426.34 292.753C436.856 292.755 444.875 292.513 455.041 289.883C453.927 294.503 453.572 299.401 453.008 304.123L450.192 328.669C446.081 364.115 442.994 399.974 433.31 434.451L429.736 444.125C415.992 473.448 366.64 480.301 336.995 481.82C320.258 482.677 303.467 481.702 286.775 480.713L174.942 472.755C154.771 471.126 133.528 469.804 114.975 460.982C90.9116 449.541 85.0326 423.081 79.9472 399.322L60.6484 298.857C59.8563 294.675 59.1457 290.309 57.7047 286.295L57.5938 285.994C63.4539 286.554 69.2796 286.472 75.1592 286.465L119.754 285.224L175.007 280.862Z" fill="#FFA200"/>
<path d="M115.137 311.875C117.512 311.51 120.036 312.141 121.17 314.5L120.125 315.061L117.432 315.404C116.399 314.707 114.857 313.607 114.531 312.375L115.137 311.875Z" fill="#060505"/>
<path d="M402.679 380.625L403.477 381C401.583 383.833 397.019 385.132 397.278 389.25C399.23 392.99 403.498 390.303 406.217 388.999C405.52 390.199 404.769 391.087 403.809 392.074L403.506 392.292C395.392 398.002 388.943 386.944 402.679 380.625Z" fill="#060505"/>
<path d="M102.547 310.041C103.352 309.973 104.082 310.03 104.883 310.117L105.117 310.625C104.576 311.628 103.908 312.535 103.251 313.464C106.247 321.963 112.015 322.475 117.33 315.875L117.536 316.125C117.992 316.999 117.82 318.069 117.73 319.004C112.907 328.842 99.3899 317.709 99.9932 312C100.719 311.044 101.522 310.602 102.547 310.041Z" fill="#060505"/>
<path d="M216.16 436.125L216.738 436.056C217.386 436.393 217.403 436.471 217.746 437.125C216.592 443.6 226.127 447.968 227.573 440.718C227.681 440.177 227.71 439.816 228.062 439.375L228.351 439.389C230.215 439.646 230.699 441.538 230.394 443.125C226.251 452.91 209.102 442.449 216.16 436.125Z" fill="#060505"/>
<path d="M365.499 408.038C370.095 408.326 364.116 411.909 363.985 414.233C363.757 418.274 368.668 422.257 372.448 422.253C377.352 422.247 378.069 417.912 380.827 415.087L381.26 415.375C381.325 416.522 381.027 417.515 380.742 418.613L380.65 418.858C376.842 427.933 363.169 425.949 360.243 415.724C359.014 411.429 361.413 409.024 365.499 408.038Z" fill="#060505"/>
<path d="M122.455 436.875C125.998 436.946 121.741 444.142 130.94 447.608C132.505 446.211 132.53 444.255 134.875 443.757C137.791 444.646 138.777 447.274 136.629 449.403L133.688 450.875C126.226 453.842 113.751 439.66 122.455 436.875Z" fill="#060505"/>
<path d="M399.472 315.503C404.639 315.61 389.608 325.339 390.376 330.824C391.076 335.822 397.37 333.542 400.503 332.961C399.603 334.197 398.671 335.097 397.5 336.072C392.322 339.507 388.599 336.929 387.025 331.506C385.267 325.45 394.458 316.833 399.472 315.503Z" fill="#060505"/>
<path d="M116.785 362.274C120.774 362.304 122.206 364.095 118.345 366.583L118.705 367.5C120.95 373.356 129.722 373.995 133.125 369.514C134.407 367.826 136.773 363.571 137.792 369.625L137.762 370.875C136.999 374.997 127.151 375.797 124.145 375.359L122.552 375.088C116.915 373.724 111.34 364.872 116.119 362.578L116.785 362.274Z" fill="#060505"/>
<path d="M165.855 319.625C168.006 319.04 170.308 319.958 169.45 322.421L169.288 322.875C170.289 325.011 171.78 327.033 173.676 328.463C183.643 335.98 183.54 319.529 189.538 324.125C190.025 325.011 189.911 325.025 189.666 325.955C184.861 332.881 175.256 337.18 168.983 329.562C167.156 327.343 164.849 323.001 165.12 320.125L165.855 319.625Z" fill="#060505"/>
<path d="M167.831 391.262C168.698 391.37 169.196 391.302 169.872 391.875C168.817 401.539 177.927 402.906 182.625 399.126C183.618 398.326 185.186 396.155 186.375 395.987C189.187 396.797 188.923 399.667 188.166 401.889C185.653 405.676 179.854 405.509 175.878 404.782C169.836 403.677 160.667 393.988 167.831 391.262Z" fill="#060505"/>
</svg>
