<svg width="512" height="512" viewBox="0 0 512 512" fill="none" xmlns="http://www.w3.org/2000/svg">
<path d="M286.961 2.82963C311.518 2.61141 319.601 12.0338 334.553 30.6755C338.931 36.1328 341.056 41.2013 348.375 42.25L357.375 43.8725C372.913 47.1686 382.957 50.8713 392.439 64.347C395.092 68.1177 397.767 72.3048 401.435 75.1748L401.697 75.375C406.089 78.7742 412.039 79.4456 417.309 80.7133C446.199 87.6631 454.629 103.75 451.175 131.499L450.355 137.162C450.166 138.194 449.509 139.077 450.298 139.902L474.865 163.651C492.064 181.16 503.077 195.932 496.016 220.75L489.625 240.316C482.628 259.054 474.177 277.303 465.382 295.256L450.408 325.593L421.822 392.024C420.848 394.551 419.768 397.069 418.307 399.356C417.288 400.953 414.559 403.401 414.396 405.242L412.96 442.78C411.723 471.053 407.372 495.445 378.029 506.979C365.247 512.004 350.21 510.358 337.365 506.482L294.408 491.963L272.331 485.771C267.498 484.524 262.06 483.597 257.494 481.607C256.959 486.84 254.378 490.05 250.756 493.619C240.158 501.976 233.18 497.431 222.282 492.045L202.507 481.449C197.327 478.492 193.28 475.694 187.332 474.764C136.529 466.827 125.787 447.727 118.734 399.533L115.673 373.599C115.605 371.744 115.951 369.716 115.088 368.121L112.875 364.033C112.012 362.388 111.271 360.71 110.568 358.992L92.0133 316.504L66.9897 269.466L48.3911 232.275C39.2288 214.524 27.2679 198.464 19.5346 179.944C4.2462 143.332 20.7641 123.695 55.7483 108.937C64.9181 105.069 75.1297 100.614 85.1112 99.3204L99.0035 97.423C98.1657 88.3332 102.574 74.338 109.799 69.0057L110.125 68.771C112.994 66.677 116.478 65.4182 119.809 64.2682L136.025 59.4569C144.687 57.0037 153.462 54.4442 162.281 52.6335L176 50.2513C178.07 49.8526 180.121 47.566 181.99 46.4317C185.234 44.4624 188.717 42.8684 192.148 41.2595L217.106 30.0175L250.638 16.0345C262.407 10.4125 273.857 4.50339 286.961 2.82963Z" fill="#060505"/>
<path d="M291.663 18.6013L295.689 18.6426C306.093 19.6093 313.75 28.1281 319.33 36.1813C320.818 38.3295 322.131 40.9831 323.812 42.9402L324.097 43.2638C320.911 42.8985 317.606 43.007 314.402 42.9942L273.555 43.0607C271.57 43.1184 269.619 43.4759 267.638 43.5393L243.137 44.6906L212.427 48.443L222.53 45.0714C229.872 42.638 237.1 40.2233 244.182 37.0888C259.269 30.4108 274.859 20.1318 291.663 18.6013Z" fill="#FFA200"/>
<path d="M353.4 436.83C363.22 436.833 361.787 436.959 369.686 433.296L369.927 433.187C363.614 445.873 345.838 448.271 333.305 450.195L250.055 460.11L215.341 461.208C194.602 461.194 156.799 460.437 143.976 440.251L154.125 444.218C166.002 448.37 178.56 448.661 191 447.726L265.75 439.66L277.973 439.362C280.454 439.266 282.947 438.747 285.469 438.655L311.515 438.537C325.418 438.542 339.648 439.216 353.417 437.091L353.4 436.83Z" fill="#FFA200"/>
<path d="M444.98 159.478C450.952 163.823 456.53 168.827 461.906 173.886C486.194 196.744 487.391 202.981 476.028 231.641L464.32 259.256L426.502 341.555L414.785 368.645L414.902 356.732C414.984 354.793 415.323 352.881 415.388 350.942L418.285 303.434L434.647 205.253L444.98 159.478Z" fill="#FFA200"/>
<path d="M98.1775 112.843C98.8481 112.774 99.2221 112.65 99.8429 112.934L119.821 339.014L96.2779 293.531L76.7084 258.059L47.3349 199.971C41.7555 189.857 30.5334 171.019 28.8481 159.497C24.4942 129.732 76.5469 115.935 98.1775 112.843Z" fill="#FFA200"/>
<path d="M118.1 137.454L116.667 129.583C115.309 121.942 114.832 113.973 114.802 106.227C114.684 74.7895 124.505 78.3601 149.248 72.4533C161.238 69.5911 172.879 65.9298 185.04 63.7591L229.409 58.6648L254.785 57.5557L332.923 57.4909C345.556 57.5323 364.186 56.5135 374.397 65.5563C382.935 73.1175 385.504 85.0076 396.153 90.5945C406.465 96.0055 419.547 94.4544 429.2 101.279C439.881 108.831 437.965 121.902 436.118 133.129L409.43 281.75L405.252 314.375L400.334 375.119L398.583 413.375L398.392 431.805C397.665 456.723 392.4 490.703 362.625 495.33C351.795 497.013 331.97 488.034 321.889 484.361L303.36 477.996L278.965 471.443C277.862 471.157 276.709 471.07 275.578 470.938C277.477 470.563 279.709 470.734 281.658 470.627L341.438 462.991C363.752 458.869 381.779 455.981 387.047 430.626C390.145 415.714 388.546 401.012 387.457 386L385.179 339.596C385.104 337.414 384.619 335.277 384.542 333.125L383.254 292.125L379.352 228.932C379.26 226.659 378.863 224.388 378.795 222.125L380.821 156.5C381.298 149.11 381.773 141.37 381.172 133.975C379.068 108.054 363.236 84.2389 337.402 76.8464C323.976 73.0044 308.914 72.4846 294.977 73.3927L268.805 75.4315L197.992 75.5831C191.809 75.7821 185.608 76.5934 179.45 77.1922L159.667 79.1228C127.022 83.2293 123.698 91.4427 119.302 121.281C118.751 125.023 117.822 129.681 118.377 133.411L118.411 133.613C118.512 134.737 118.411 136.37 118.1 137.454Z" fill="#FFA200"/>
<path d="M118.411 133.613L120.953 117C122.648 108.014 124.82 98.2192 132.368 92.2604C142.283 84.4334 158.264 83.0655 170.592 82.4448L290.851 82.3234C301.415 82.318 312.117 82.0652 322.625 83.3312C353.372 87.0355 373.008 107.274 375.56 137.983C375.879 141.832 375.753 145.73 375.753 149.59L375.64 162.401L371.251 218.435L371.236 274.876L376.231 362.817L377.109 393.286C377.108 406.218 376.999 421.902 369.927 433.187L369.686 433.296C361.787 436.959 363.22 436.833 353.4 436.813C347.811 436.667 342.245 434.864 336.827 433.588L323.25 430.924C305.159 427.936 286.575 426.305 268.245 426.734L238.245 428.047C233.731 428.076 229.348 428.585 224.876 429.164L204.65 431.436C193.064 432.659 181.521 434.439 169.852 434.695C140.118 435.349 130.625 400.872 129.334 376.888L129.185 342.826C129.149 340.17 128.764 337.59 128.64 334.953L127.553 311.646C126.281 288.274 121.191 265.383 119.558 242.085L118.355 218.75C118.179 215.898 117.713 213.064 117.651 210.21L117.682 137.454C118.411 136.37 118.512 134.737 118.411 133.613Z" fill="#FFECCC"/>
<path d="M324.045 391.041L324.374 390.453C325.902 389.745 331.602 388.689 332.803 390.452C335.423 406.138 321.737 404.115 324.045 391.041Z" fill="#060505"/>
<path d="M324.045 391.041L323.702 390.633C307.504 390.117 297.655 371.658 306.625 358.234C309.317 354.205 314.467 349.683 319.375 348.741C319.864 348.929 320.095 349.076 320.625 348.994L320.488 348.25C321.724 346.008 325.669 343.159 328.278 344.745C329.382 346.698 329.549 348.995 329.816 351.184L335.906 351.799C357.379 355.789 355.412 383.113 337.355 389.159C336.208 389.544 333.778 389.63 332.956 390.287L332.803 390.452C331.602 388.689 325.902 389.745 324.374 390.453L324.045 391.041Z" fill="#060505"/>
<path d="M158.814 112.256C163.995 112.628 164.198 118.082 165.957 122.018C169.419 129.765 178.513 132.999 181.875 141.268C185.801 150.925 180.724 163.28 170.38 166.208C168.046 166.868 165.728 167.179 163.442 168.058C165.806 177.629 162.923 167.336 156.474 173.875L156.038 174.168C156.119 173.13 158.019 166.516 158.398 164.627L156.669 165.522C142.612 171.555 130.128 153.902 136.176 139.995C138.979 133.55 144.98 130.935 149.162 125.742C152.544 121.541 153.533 114.32 158.814 112.256Z" fill="#060505"/>
<path d="M245.107 177.875C248.882 177.174 252.566 183.113 254.663 185.576C262.984 195.349 272.308 203.328 281.876 211.847C290.996 219.967 300.75 228.889 302.96 241.524C306.307 260.655 295.368 284.678 274.796 287.859C268.646 288.81 263.418 286.999 258.508 283.364C261.426 290.791 265.434 298.004 272.625 301.996C277.415 304.656 286.089 307.082 279.514 313.568C274.482 318.533 265.807 317.775 259.346 317.784L243.625 317.789L226.297 317.199C223.239 316.846 220.304 316.371 218.375 313.699C214.371 308.153 222.359 305.271 225.871 302.875C233.654 297.563 236.788 292.043 238.462 283.193C230.673 291.216 220.719 292.226 210.125 288.742C190.673 282.345 180.533 260.625 187.074 241.352C191.996 226.85 205.045 218.582 216.34 209.324C222.844 203.992 228.975 197.866 234.094 191.178L238.505 185.091C240.326 182.42 242.117 179.364 245.107 177.875Z" fill="#060505"/>
</svg>
