<svg width="200" height="200" viewBox="0 0 200 200" fill="none" xmlns="http://www.w3.org/2000/svg">
<path fill-rule="evenodd" clip-rule="evenodd" d="M49 5C39.0589 5 31 13.0589 31 23V113.514C31 125.59 41.4454 132.1 51 130.877V43C51 33.0589 59.0589 25 69 25H93C102.941 25 111 33.0589 111 43V130.877C120.555 132.1 131 125.59 131 113.514V23C131 13.0589 122.941 5 113 5H49Z" fill="url(#paint0_linear_187_36)"/>
<path fill-rule="evenodd" clip-rule="evenodd" d="M151 194.023C160.941 194.023 169 185.964 169 176.023L169 85.5094C169 73.4331 158.555 66.923 149 68.1463L149 156.023C149 165.964 140.941 174.023 131 174.023L107 174.023C97.0589 174.023 89 165.964 89 156.023L89 68.1463C79.4454 66.923 69 73.4331 69 85.5094L69 176.023C69 185.964 77.0589 194.023 87 194.023L151 194.023Z" fill="url(#paint1_linear_187_36)"/>
<defs>
<linearGradient id="paint0_linear_187_36" x1="31" y1="131.023" x2="153.726" y2="33.6394" gradientUnits="userSpaceOnUse">
<stop stop-color="#F0AF24"/>
<stop offset="0.21" stop-color="#F0B62D"/>
<stop offset="0.3" stop-color="#F2BA36"/>
<stop offset="0.39" stop-color="#F3C03F"/>
<stop offset="0.46" stop-color="#F3C649"/>
<stop offset="0.54" stop-color="#F4C952"/>
<stop offset="0.61" stop-color="#F6D060"/>
<stop offset="0.69" stop-color="#F6D56A"/>
<stop offset="0.79" stop-color="#F7D873"/>
<stop offset="1" stop-color="#F8DD7C"/>
</linearGradient>
<linearGradient id="paint1_linear_187_36" x1="169" y1="68.0001" x2="46.2745" y2="165.384" gradientUnits="userSpaceOnUse">
<stop stop-color="#F0AF24"/>
<stop offset="0.21" stop-color="#F0B62D"/>
<stop offset="0.3" stop-color="#F2BA36"/>
<stop offset="0.39" stop-color="#F3C03F"/>
<stop offset="0.46" stop-color="#F3C649"/>
<stop offset="0.54" stop-color="#F4C952"/>
<stop offset="0.61" stop-color="#F6D060"/>
<stop offset="0.69" stop-color="#F6D56A"/>
<stop offset="0.79" stop-color="#F7D873"/>
<stop offset="1" stop-color="#F8DD7C"/>
</linearGradient>
</defs>
</svg>
